<svg id="Component_6_1" data-name="Component 6 – 1" xmlns="http://www.w3.org/2000/svg" xmlns:xlink="http://www.w3.org/1999/xlink" width="862" height="572" viewBox="0 0 862 572">
  <defs>
    <clipPath id="clip-path">
      <rect id="Rectangle_21" data-name="Rectangle 21" width="862" height="572" transform="translate(453 246.167)" fill="#fff"/>
    </clipPath>
    <linearGradient id="linear-gradient" x1="0.237" y1="1.013" x2="0.686" y2="0.08" gradientUnits="objectBoundingBox">
      <stop offset="0" stop-color="#efeff3"/>
      <stop offset="1" stop-color="#fff"/>
    </linearGradient>
    <linearGradient id="linear-gradient-2" y1="0.5" x2="1" y2="0.5" gradientUnits="objectBoundingBox">
      <stop offset="0.404" stop-color="#c6cbe7"/>
      <stop offset="0.636" stop-color="#d9dcef"/>
      <stop offset="1" stop-color="#fff"/>
    </linearGradient>
    <linearGradient id="linear-gradient-3" x1="2.647" y1="-10.024" x2="3.161" y2="-7.977" gradientUnits="objectBoundingBox">
      <stop offset="0" stop-color="#ffad02"/>
      <stop offset="0.181" stop-color="#fda204"/>
      <stop offset="0.491" stop-color="#f88709"/>
      <stop offset="0.89" stop-color="#f15b13"/>
      <stop offset="1" stop-color="#ef4e16"/>
    </linearGradient>
    <linearGradient id="linear-gradient-5" x1="4.712" y1="-14.256" x2="4.177" y2="-16.281" gradientUnits="objectBoundingBox">
      <stop offset="0" stop-color="#362e94"/>
      <stop offset="0.347" stop-color="#504ab8"/>
      <stop offset="1" stop-color="#807dfb"/>
    </linearGradient>
    <linearGradient id="linear-gradient-6" x1="-8.722" y1="0.982" x2="-9.76" y2="0.076" gradientUnits="objectBoundingBox">
      <stop offset="0" stop-color="#ced2f4"/>
      <stop offset="0.741" stop-color="#f5f5f9"/>
    </linearGradient>
    <linearGradient id="linear-gradient-7" x1="-7.548" y1="0.819" x2="-8.659" y2="0.229" gradientUnits="objectBoundingBox">
      <stop offset="0" stop-color="#c2c7e2"/>
      <stop offset="1" stop-color="#ced2f4"/>
    </linearGradient>
    <linearGradient id="linear-gradient-8" x1="-9.204" y1="0.5" x2="-8.204" y2="0.5" gradientUnits="objectBoundingBox">
      <stop offset="0" stop-color="#fff"/>
      <stop offset="1" stop-color="#dadff2"/>
    </linearGradient>
    <linearGradient id="linear-gradient-9" x1="-10.18" y1="-0.115" x2="-9.638" y2="0.998" gradientUnits="objectBoundingBox">
      <stop offset="0.259" stop-color="#5455c4"/>
      <stop offset="0.941" stop-color="#7a7aed"/>
      <stop offset="1" stop-color="#7e7ef1"/>
    </linearGradient>
    <linearGradient id="linear-gradient-10" x1="-7.876" y1="-0.238" x2="-7.472" y2="1.095" xlink:href="#linear-gradient-9"/>
    <linearGradient id="linear-gradient-11" x1="-16.399" y1="1" x2="-16.399" gradientUnits="objectBoundingBox">
      <stop offset="0" stop-color="#1e1c6b"/>
      <stop offset="0.692" stop-color="#343494"/>
      <stop offset="1" stop-color="#4041a8"/>
    </linearGradient>
    <linearGradient id="linear-gradient-12" x1="7.549" y1="0.938" x2="8.041" y2="0.169" gradientUnits="objectBoundingBox">
      <stop offset="0" stop-color="#7f7ff4"/>
      <stop offset="0.276" stop-color="#7979ed"/>
      <stop offset="0.645" stop-color="#6969dc"/>
      <stop offset="1" stop-color="#5555c6"/>
    </linearGradient>
    <linearGradient id="linear-gradient-13" x1="0.89" y1="0.18" x2="1.254" y2="0.882" gradientUnits="objectBoundingBox">
      <stop offset="0" stop-color="#5555c6"/>
      <stop offset="1" stop-color="#7f7ff4"/>
    </linearGradient>
    <linearGradient id="linear-gradient-14" y1="0.5" x2="1" y2="0.5" gradientUnits="objectBoundingBox">
      <stop offset="0" stop-color="#c4c9e5"/>
      <stop offset="0.424" stop-color="#daddee"/>
      <stop offset="1" stop-color="#fff"/>
    </linearGradient>
    <linearGradient id="linear-gradient-15" x1="0.5" y1="1" x2="0.5" gradientUnits="objectBoundingBox">
      <stop offset="0" stop-color="#bdc1e4"/>
      <stop offset="1" stop-color="#a7aed6"/>
    </linearGradient>
    <linearGradient id="linear-gradient-17" x1="0.058" y1="0.004" x2="1.372" y2="0.896" gradientUnits="objectBoundingBox">
      <stop offset="0.297" stop-color="#6b6ae0"/>
      <stop offset="0.351" stop-color="#4f4db6"/>
      <stop offset="0.412" stop-color="#34318d"/>
    </linearGradient>
    <linearGradient id="linear-gradient-18" x1="-0.241" y1="0.5" x2="0.759" y2="0.5" gradientUnits="objectBoundingBox">
      <stop offset="0" stop-color="#c4cae9"/>
      <stop offset="0.095" stop-color="#cdd2ec"/>
      <stop offset="0.409" stop-color="#e8eaf6"/>
      <stop offset="0.687" stop-color="#f9f9fc"/>
      <stop offset="0.899" stop-color="#fff"/>
    </linearGradient>
    <linearGradient id="linear-gradient-19" x1="9.579" y1="2.042" x2="10.231" y2="1.496" gradientUnits="objectBoundingBox">
      <stop offset="0" stop-color="#423eaf"/>
      <stop offset="0.488" stop-color="#302a8d"/>
      <stop offset="1" stop-color="#20196f"/>
    </linearGradient>
    <linearGradient id="linear-gradient-20" x1="9.536" y1="1.898" x2="10.188" y2="1.351" xlink:href="#linear-gradient-19"/>
    <linearGradient id="linear-gradient-21" x1="4.367" y1="0.5" x2="5.367" y2="0.5" gradientUnits="objectBoundingBox">
      <stop offset="0" stop-color="#ef4e16"/>
      <stop offset="1" stop-color="#ffad02"/>
    </linearGradient>
    <linearGradient id="linear-gradient-22" x1="1.376" y1="0.5" x2="2.376" y2="0.5" gradientUnits="objectBoundingBox">
      <stop offset="0" stop-color="#c2c7e2"/>
      <stop offset="0.111" stop-color="#cdd1e7"/>
      <stop offset="0.419" stop-color="#e8eaf4"/>
      <stop offset="0.691" stop-color="#f9f9fc"/>
      <stop offset="0.899" stop-color="#fff"/>
    </linearGradient>
    <linearGradient id="linear-gradient-23" x1="1.625" y1="0.5" x2="2.625" y2="0.5" xlink:href="#linear-gradient-22"/>
    <linearGradient id="linear-gradient-24" x1="8.7" y1="0.5" x2="9.7" y2="0.5" gradientUnits="objectBoundingBox">
      <stop offset="0" stop-color="#34318a"/>
      <stop offset="0.244" stop-color="#3d3b99"/>
      <stop offset="0.716" stop-color="#5757c1"/>
      <stop offset="1" stop-color="#696add"/>
    </linearGradient>
    <linearGradient id="linear-gradient-25" y1="0.5" x2="1" y2="0.5" gradientUnits="objectBoundingBox">
      <stop offset="0" stop-color="#4041a8"/>
      <stop offset="0.275" stop-color="#343493"/>
      <stop offset="0.737" stop-color="#242276"/>
      <stop offset="1" stop-color="#1e1c6b"/>
    </linearGradient>
    <linearGradient id="linear-gradient-26" x1="6.227" y1="0.5" x2="7.227" y2="0.5" xlink:href="#linear-gradient-24"/>
    <linearGradient id="linear-gradient-27" x1="4.545" y1="0.5" x2="5.545" y2="0.5" gradientUnits="objectBoundingBox">
      <stop offset="0" stop-color="#1e1c6b"/>
      <stop offset="0.201" stop-color="#242376"/>
      <stop offset="0.556" stop-color="#373693"/>
      <stop offset="1" stop-color="#5455c1"/>
    </linearGradient>
    <linearGradient id="linear-gradient-28" x1="14.795" y1="0.027" x2="15.613" y2="1.033" gradientUnits="objectBoundingBox">
      <stop offset="0" stop-color="#ccd0f2"/>
      <stop offset="0.432" stop-color="#c1c5e8"/>
      <stop offset="1" stop-color="#b9bde0"/>
    </linearGradient>
    <linearGradient id="linear-gradient-29" x1="4.32" y1="0.5" x2="5.32" y2="0.5" gradientUnits="objectBoundingBox">
      <stop offset="0" stop-color="#ccd0f2"/>
      <stop offset="0.332" stop-color="#d1d5f2"/>
      <stop offset="0.767" stop-color="#e2e3f2"/>
      <stop offset="1" stop-color="#eeeef2"/>
    </linearGradient>
    <linearGradient id="linear-gradient-30" x1="5.062" y1="0.5" x2="6.062" y2="0.5" gradientUnits="objectBoundingBox">
      <stop offset="0" stop-color="#ccd0f2"/>
      <stop offset="0.646" stop-color="#f0f1fb"/>
      <stop offset="1" stop-color="#fff"/>
    </linearGradient>
  </defs>
  <g id="Mask_Group_2" data-name="Mask Group 2" transform="translate(-453 -246.167)" clip-path="url(#clip-path)">
    <g id="num_3" transform="translate(548.085 262.175)">
      <g id="Wave_shape" data-name="Wave shape" transform="translate(15.221 76.444)">
        <path id="Path_706" data-name="Path 706" d="M1232.22,911.909c195.175-65.728,248.884-256.6,95-283.41-187.233-32.623-267.495-98.2-340.813-133.355-44.482-21.329-136.3-1.57-170.824,36.13-46.072,50.316-72.2,101.328-13.139,185.774,32.867,46.991-138.973,65.972-21.526,144.713C891.265,935.746,1071.911,965.9,1232.22,911.909Z" transform="translate(-739.289 -486.383)" fill="url(#linear-gradient)"/>
      </g>
      <g id="Abstract_shapes" data-name="Abstract shapes" transform="translate(31.098 172.022)">
        <path id="Path_707" data-name="Path 707" d="M2121.158,1492.64l14.492,31.226a3.544,3.544,0,0,0,4.985,1.577l39.593-22.86a3.541,3.541,0,0,0-1.229-6.568l-54.086-8.368A3.543,3.543,0,0,0,2121.158,1492.64Z" transform="translate(-1604.397 -1197.413)" fill="#e8ecf7" style="mix-blend-mode: multiply;isolation: isolate"/>
        <path id="Path_708" data-name="Path 708" d="M1304.007,739.568c-11.834-6.831-31.02-6.831-42.853,0s-11.834,17.91,0,24.742,31.02,6.833,42.853,0S1315.84,746.4,1304.007,739.568Zm-32.741,18.9c-6.25-3.608-6.25-9.458,0-13.066s16.381-3.608,22.629,0,6.25,9.458,0,13.066S1277.514,762.08,1271.266,758.471Z" transform="translate(-1070.501 -734.445)" fill="#fff"/>
        <g id="Group_148" data-name="Group 148" transform="translate(570.321 76.8)">
          <ellipse id="Ellipse_11" data-name="Ellipse 11" cx="5.341" cy="3.084" rx="5.341" ry="3.084" transform="translate(73.919)" fill="#e8ecf7"/>
          <path id="Path_709" data-name="Path 709" d="M2502.081,966.726a8.347,8.347,0,0,0,7.553,0c2.086-1.2,2.086-3.157,0-4.361a8.347,8.347,0,0,0-7.553,0C2500,963.569,2500,965.522,2502.081,966.726Z" transform="translate(-2408.117 -950.793)" fill="#e8ecf7"/>
          <path id="Path_710" data-name="Path 710" d="M2550.043,994.417a8.347,8.347,0,0,0,7.553,0c2.085-1.2,2.085-3.157,0-4.361a8.348,8.348,0,0,0-7.553,0C2547.956,991.26,2547.956,993.213,2550.043,994.417Z" transform="translate(-2437.599 -967.815)" fill="#e8ecf7"/>
          <path id="Path_711" data-name="Path 711" d="M2605.559,1017.746a8.349,8.349,0,0,0-7.553,0c-2.086,1.2-2.086,3.157,0,4.361a8.35,8.35,0,0,0,7.553,0C2607.645,1020.9,2607.645,1018.95,2605.559,1017.746Z" transform="translate(-2467.082 -984.836)" fill="#e8ecf7"/>
          <path id="Path_712" data-name="Path 712" d="M2406.155,966.726a8.348,8.348,0,0,0,7.553,0c2.086-1.2,2.086-3.157,0-4.361a8.348,8.348,0,0,0-7.553,0C2404.07,963.569,2404.07,965.522,2406.155,966.726Z" transform="translate(-2349.151 -950.793)" fill="#e8ecf7"/>
          <path id="Path_713" data-name="Path 713" d="M2454.117,994.417a8.348,8.348,0,0,0,7.553,0c2.085-1.2,2.085-3.157,0-4.361a8.349,8.349,0,0,0-7.553,0C2452.031,991.26,2452.031,993.213,2454.117,994.417Z" transform="translate(-2378.633 -967.815)" fill="#e8ecf7"/>
          <path id="Path_714" data-name="Path 714" d="M2502.081,1022.107a8.35,8.35,0,0,0,7.553,0c2.086-1.2,2.086-3.157,0-4.361a8.347,8.347,0,0,0-7.553,0C2500,1018.95,2500,1020.9,2502.081,1022.107Z" transform="translate(-2408.117 -984.836)" fill="#e8ecf7"/>
          <path id="Path_715" data-name="Path 715" d="M2557.6,1045.44a8.341,8.341,0,0,0-7.553,0c-2.086,1.2-2.086,3.155,0,4.359a8.347,8.347,0,0,0,7.553,0C2559.682,1048.6,2559.682,1046.644,2557.6,1045.44Z" transform="translate(-2437.6 -1001.859)" fill="#e8ecf7"/>
          <path id="Path_716" data-name="Path 716" d="M2358.191,994.417a8.349,8.349,0,0,0,7.554,0c2.086-1.2,2.086-3.157,0-4.361a8.35,8.35,0,0,0-7.554,0C2356.105,991.26,2356.105,993.213,2358.191,994.417Z" transform="translate(-2319.667 -967.815)" fill="#e8ecf7"/>
          <path id="Path_717" data-name="Path 717" d="M2406.155,1022.107a8.349,8.349,0,0,0,7.553,0c2.086-1.2,2.086-3.157,0-4.361a8.348,8.348,0,0,0-7.553,0C2404.07,1018.95,2404.07,1020.9,2406.155,1022.107Z" transform="translate(-2349.151 -984.836)" fill="#e8ecf7"/>
          <path id="Path_718" data-name="Path 718" d="M2454.118,1049.8a8.347,8.347,0,0,0,7.552,0c2.086-1.2,2.086-3.155,0-4.359a8.335,8.335,0,0,0-7.552,0C2452.031,1046.643,2452.031,1048.594,2454.118,1049.8Z" transform="translate(-2378.633 -1001.858)" fill="#e8ecf7"/>
          <ellipse id="Ellipse_12" data-name="Ellipse 12" cx="5.341" cy="3.084" rx="5.341" ry="3.084" transform="translate(92.399 53.347)" fill="#e8ecf7"/>
          <path id="Path_719" data-name="Path 719" d="M2310.23,1022.107a8.348,8.348,0,0,0,7.552,0c2.086-1.2,2.086-3.157,0-4.361a8.347,8.347,0,0,0-7.552,0C2308.145,1018.95,2308.145,1020.9,2310.23,1022.107Z" transform="translate(-2290.186 -984.836)" fill="#e8ecf7"/>
          <path id="Path_720" data-name="Path 720" d="M2358.192,1049.8a8.347,8.347,0,0,0,7.553,0c2.086-1.2,2.086-3.155,0-4.361a8.347,8.347,0,0,0-7.553,0C2356.106,1046.642,2356.106,1048.594,2358.192,1049.8Z" transform="translate(-2319.667 -1001.857)" fill="#e8ecf7"/>
          <path id="Path_721" data-name="Path 721" d="M2406.155,1077.493a8.348,8.348,0,0,0,7.553,0c2.086-1.206,2.086-3.157,0-4.361a8.348,8.348,0,0,0-7.553,0C2404.07,1074.336,2404.07,1076.287,2406.155,1077.493Z" transform="translate(-2349.151 -1018.882)" fill="#e8ecf7"/>
          <ellipse id="Ellipse_13" data-name="Ellipse 13" cx="5.341" cy="3.084" rx="5.341" ry="3.084" transform="translate(73.92 64.016)" fill="#e8ecf7"/>
          <path id="Path_722" data-name="Path 722" d="M2269.82,1045.436a8.349,8.349,0,0,0-7.554,0c-2.085,1.206-2.085,3.157,0,4.361a8.349,8.349,0,0,0,7.554,0C2271.905,1048.594,2271.905,1046.642,2269.82,1045.436Z" transform="translate(-2260.702 -1001.857)" fill="#e8ecf7"/>
          <path id="Path_723" data-name="Path 723" d="M2317.782,1073.132a8.347,8.347,0,0,0-7.552,0c-2.085,1.2-2.085,3.155,0,4.361a8.347,8.347,0,0,0,7.552,0C2319.869,1076.287,2319.869,1074.336,2317.782,1073.132Z" transform="translate(-2290.186 -1018.882)" fill="#e8ecf7"/>
          <path id="Path_724" data-name="Path 724" d="M2365.745,1100.822a8.347,8.347,0,0,0-7.553,0c-2.086,1.2-2.086,3.157,0,4.361a8.347,8.347,0,0,0,7.553,0C2367.831,1103.979,2367.831,1102.026,2365.745,1100.822Z" transform="translate(-2319.667 -1035.903)" fill="#e8ecf7"/>
          <path id="Path_725" data-name="Path 725" d="M2413.708,1128.51a8.348,8.348,0,0,0-7.553,0c-2.085,1.2-2.085,3.157,0,4.361a8.351,8.351,0,0,0,7.554,0C2415.794,1131.667,2415.794,1129.714,2413.708,1128.51Z" transform="translate(-2349.151 -1052.923)" fill="#e8ecf7"/>
        </g>
        <g id="Group_149" data-name="Group 149" transform="translate(36.593 244.948)">
          <path id="Path_726" data-name="Path 726" d="M1076.436,1371.083a8.35,8.35,0,0,0-7.553,0c-2.085,1.2-2.085,3.156,0,4.361a8.349,8.349,0,0,0,7.553,0C1078.521,1374.24,1078.521,1372.288,1076.436,1371.083Z" transform="translate(-993.399 -1370.18)" fill="#fff"/>
          <path id="Path_727" data-name="Path 727" d="M1028.472,1398.776a8.347,8.347,0,0,0-7.553,0c-2.086,1.2-2.086,3.156,0,4.361a8.347,8.347,0,0,0,7.553,0C1030.558,1401.932,1030.558,1399.98,1028.472,1398.776Z" transform="translate(-963.916 -1387.203)" fill="#fff"/>
          <path id="Path_728" data-name="Path 728" d="M980.51,1426.466a8.347,8.347,0,0,0-7.553,0c-2.086,1.2-2.086,3.157,0,4.361a8.347,8.347,0,0,0,7.553,0C982.6,1429.623,982.6,1427.67,980.51,1426.466Z" transform="translate(-934.433 -1404.224)" fill="#fff"/>
          <path id="Path_729" data-name="Path 729" d="M932.548,1454.157a8.349,8.349,0,0,0-7.553,0c-2.086,1.2-2.086,3.157,0,4.361a8.349,8.349,0,0,0,7.553,0C934.633,1457.314,934.633,1455.361,932.548,1454.157Z" transform="translate(-904.951 -1421.246)" fill="#fff"/>
          <path id="Path_730" data-name="Path 730" d="M884.586,1481.849a8.349,8.349,0,0,0-7.554,0c-2.084,1.2-2.084,3.156,0,4.361a8.349,8.349,0,0,0,7.554,0C886.671,1485.006,886.671,1483.053,884.586,1481.849Z" transform="translate(-875.469 -1438.268)" fill="#fff"/>
        </g>
        <path id="Path_731" data-name="Path 731" d="M807.977,966.676l16.6,9.587c2.532,1.461,2.214,4.014-.709,5.7l-15.186,8.768c-2.922,1.688-7.346,1.87-9.877.409l-16.6-9.586c-2.532-1.462-2.214-4.015.709-5.7l15.186-8.768C801.023,965.4,805.445,965.214,807.977,966.676Z" transform="translate(-780.495 -876.591)" fill="#e8ecf7" style="mix-blend-mode: multiply;isolation: isolate"/>
      </g>
      <g id="Objects" transform="translate(0)">
        <g id="Linear_elements" data-name="Linear elements" transform="translate(61.85 41.603)">
          <g id="Group_154" data-name="Group 154" style="mix-blend-mode: multiply;isolation: isolate">
            <g id="Group_152" data-name="Group 152" transform="translate(2.438 2.921)">
              <path id="Path_732" data-name="Path 732" d="M906.242,447.824l-38.356-22.144,38.356-22.144L944.6,425.681Z" transform="translate(-867.405 -403.536)" fill="none" stroke="#ced3f8" stroke-linecap="round" stroke-linejoin="round" stroke-width="2.5"/>
              <g id="Group_150" data-name="Group 150" transform="translate(0 21.663)">
                <path id="Path_733" data-name="Path 733" d="M905.474,527.154a.483.483,0,0,1-.241-.064l-38.356-22.144a.481.481,0,0,1-.241-.417V460.242a.482.482,0,1,1,.963,0v44.009l37.874,21.866,37.874-21.866V460.242a.482.482,0,1,1,.963,0v44.287a.481.481,0,0,1-.241.417L905.715,527.09A.483.483,0,0,1,905.474,527.154Z" transform="translate(-866.637 -459.76)" fill="#ced3f8"/>
              </g>
              <g id="Group_151" data-name="Group 151" transform="translate(38.356 43.806)">
                <path id="Path_734" data-name="Path 734" d="M966.667,562.482a.481.481,0,0,1-.482-.482V517.713a.482.482,0,0,1,.963,0V562A.481.481,0,0,1,966.667,562.482Z" transform="translate(-966.185 -517.231)" fill="#ced3f8"/>
              </g>
            </g>
            <g id="Group_153" data-name="Group 153">
              <path id="Path_735" data-name="Path 735" d="M959.853,398.876a2.921,2.921,0,1,1,2.921,2.921A2.921,2.921,0,0,1,959.853,398.876Z" transform="translate(-921.499 -395.955)" fill="#ced3f8"/>
              <path id="Path_736" data-name="Path 736" d="M860.309,456.348a2.92,2.92,0,1,1,2.92,2.921A2.921,2.921,0,0,1,860.309,456.348Z" transform="translate(-860.309 -431.283)" fill="#ced3f8"/>
              <path id="Path_737" data-name="Path 737" d="M860.309,571.292a2.92,2.92,0,1,1,2.92,2.921A2.921,2.921,0,0,1,860.309,571.292Z" transform="translate(-860.309 -501.939)" fill="#ced3f8"/>
              <path id="Path_738" data-name="Path 738" d="M959.853,628.765a2.921,2.921,0,1,1,2.921,2.921A2.921,2.921,0,0,1,959.853,628.765Z" transform="translate(-921.499 -537.268)" fill="#ced3f8"/>
              <path id="Path_739" data-name="Path 739" d="M959.853,513.82a2.921,2.921,0,1,1,2.921,2.921A2.921,2.921,0,0,1,959.853,513.82Z" transform="translate(-921.499 -466.611)" fill="#ced3f8"/>
              <path id="Path_740" data-name="Path 740" d="M1059.4,456.348a2.922,2.922,0,1,1,2.923,2.921A2.922,2.922,0,0,1,1059.4,456.348Z" transform="translate(-982.689 -431.283)" fill="#ced3f8"/>
              <path id="Path_741" data-name="Path 741" d="M1059.4,571.292a2.922,2.922,0,1,1,2.923,2.921A2.922,2.922,0,0,1,1059.4,571.292Z" transform="translate(-982.689 -501.939)" fill="#ced3f8"/>
            </g>
          </g>
          <g id="Group_159" data-name="Group 159" transform="translate(545.353 116.384)">
            <g id="Group_157" data-name="Group 157" transform="translate(1.469 1.951)">
              <path id="Path_742" data-name="Path 742" d="M2306.393,732.66l-25.616-14.789,25.616-14.79,25.617,14.79Z" transform="translate(-2280.295 -703.081)" fill="none" stroke="#ffad02" stroke-linecap="round" stroke-linejoin="round" stroke-width="2.5"/>
              <g id="Group_155" data-name="Group 155" transform="translate(0 14.308)">
                <path id="Path_743" data-name="Path 743" d="M2305.624,785.548a.485.485,0,0,1-.241-.064l-25.617-14.79a.483.483,0,0,1-.241-.417V740.7a.482.482,0,0,1,.963,0V770l25.135,14.512L2330.76,770V740.7a.482.482,0,0,1,.963,0v29.579a.483.483,0,0,1-.241.417l-25.617,14.79A.483.483,0,0,1,2305.624,785.548Z" transform="translate(-2279.526 -740.216)" fill="#ffad02"/>
              </g>
              <g id="Group_156" data-name="Group 156" transform="translate(25.617 29.097)">
                <path id="Path_744" data-name="Path 744" d="M2346.493,809.143a.481.481,0,0,1-.482-.482V779.082a.482.482,0,1,1,.963,0v29.579A.481.481,0,0,1,2346.493,809.143Z" transform="translate(-2346.011 -778.6)" fill="#ffad02"/>
              </g>
            </g>
            <g id="Group_158" data-name="Group 158" transform="translate(0)">
              <path id="Path_745" data-name="Path 745" d="M2342.2,699.969a1.951,1.951,0,1,1,1.95,1.952A1.95,1.95,0,0,1,2342.2,699.969Z" transform="translate(-2316.583 -698.018)" fill="#ffad02"/>
              <path id="Path_746" data-name="Path 746" d="M2275.714,738.353a1.951,1.951,0,1,1,1.95,1.951A1.951,1.951,0,0,1,2275.714,738.353Z" transform="translate(-2275.714 -721.613)" fill="#ffad02"/>
              <path id="Path_747" data-name="Path 747" d="M2275.714,815.122a1.951,1.951,0,1,1,1.95,1.951A1.951,1.951,0,0,1,2275.714,815.122Z" transform="translate(-2275.714 -768.803)" fill="#ffad02"/>
              <path id="Path_748" data-name="Path 748" d="M2342.2,853.506a1.951,1.951,0,1,1,1.95,1.951A1.95,1.95,0,0,1,2342.2,853.506Z" transform="translate(-2316.583 -792.398)" fill="#ffad02"/>
              <path id="Path_749" data-name="Path 749" d="M2342.2,776.738a1.951,1.951,0,1,1,1.95,1.951A1.95,1.95,0,0,1,2342.2,776.738Z" transform="translate(-2316.583 -745.208)" fill="#ffad02"/>
              <path id="Path_750" data-name="Path 750" d="M2408.681,738.353a1.951,1.951,0,1,1,1.953,1.951A1.952,1.952,0,0,1,2408.681,738.353Z" transform="translate(-2357.449 -721.613)" fill="#ffad02"/>
              <path id="Path_751" data-name="Path 751" d="M2408.681,815.122a1.951,1.951,0,1,1,1.953,1.951A1.951,1.951,0,0,1,2408.681,815.122Z" transform="translate(-2357.449 -768.803)" fill="#ffad02"/>
            </g>
          </g>
        </g>
        <g id="Symbols" transform="translate(0 393.557)">
          <path id="Path_752" data-name="Path 752" d="M1758.353,1568.165c-7.311-4.219-17.025-6.161-26.566-5.877h-14.961v2.447a39.824,39.824,0,0,0-7.912,3.432c-13.6,7.907-13.525,20.729.165,28.635a40.217,40.217,0,0,0,7.747,3.365v2.555h17.941c8.629-.147,17.182-2.1,23.745-5.915C1772.121,1588.9,1772.05,1576.076,1758.353,1568.165Z" transform="translate(-1313.857 -1464.84)" fill="url(#linear-gradient-2)" style="mix-blend-mode: multiply;isolation: isolate"/>
          <g id="Group_160" data-name="Group 160" transform="translate(369.494 87.304)">
            <path id="Path_753" data-name="Path 753" d="M1669.087,1612.8c-6.892-3.979-10.333-9.2-10.319-14.42l.029-10.092c-.015,5.216,3.427,10.44,10.32,14.419,13.7,7.908,35.829,7.908,49.433,0,6.762-3.929,10.145-9.072,10.158-14.22l-.027,10.1c-.016,5.147-3.4,10.289-10.16,14.218C1704.917,1620.71,1682.785,1620.712,1669.087,1612.8Z" transform="translate(-1658.768 -1568.144)" fill="url(#linear-gradient-3)"/>
            <path id="Path_754" data-name="Path 754" d="M1669.164,1570.568c-13.692-7.907-13.771-20.729-.168-28.635s35.747-7.906,49.438,0,13.77,20.728.163,28.638S1682.861,1578.477,1669.164,1570.568Z" transform="translate(-1658.815 -1536.004)" fill="#fff"/>
          </g>
          <path id="Path_755" data-name="Path 755" d="M799.37,1341.574c-7.311-4.219-17.025-6.163-26.566-5.878h-14.96v2.447a39.917,39.917,0,0,0-7.913,3.433c-13.6,7.909-13.526,20.729.165,28.635a40.2,40.2,0,0,0,7.748,3.364v2.555h17.941c8.63-.147,17.182-2.1,23.745-5.916C813.139,1362.3,813.068,1349.485,799.37,1341.574Z" transform="translate(-724.369 -1325.553)" fill="url(#linear-gradient-2)" style="mix-blend-mode: multiply;isolation: isolate"/>
          <g id="Group_161" data-name="Group 161">
            <path id="Path_756" data-name="Path 756" d="M710.1,1386.214c-6.892-3.98-10.333-9.205-10.319-14.419l.03-10.094c-.016,5.217,3.426,10.439,10.318,14.42,13.7,7.907,35.831,7.907,49.433,0,6.762-3.929,10.145-9.071,10.16-14.221L769.7,1372c-.013,5.148-3.4,10.289-10.158,14.219C745.934,1394.122,723.8,1394.123,710.1,1386.214Z" transform="translate(-699.784 -1341.556)" fill="url(#linear-gradient-5)"/>
            <path id="Path_757" data-name="Path 757" d="M710.18,1343.981c-13.692-7.906-13.769-20.73-.166-28.635s35.748-7.906,49.439,0,13.769,20.729.161,28.637S723.878,1351.888,710.18,1343.981Z" transform="translate(-699.832 -1309.416)" fill="#fff"/>
          </g>
          <path id="Path_758" data-name="Path 758" d="M756.283,1341.957c-2.934,1.7-2.934,4.44,0,6.133a11.736,11.736,0,0,0,10.62,0c2.936-1.692,2.936-4.437,0-6.132A11.737,11.737,0,0,0,756.283,1341.957Zm22.609-7.742-1.081,0c-6.446-.019-18.443-.055-26.746,4.738s-8.24,11.722-8.205,15.442l0,.623c0,.431.611.781,1.355.782l1.085,0c6.445.019,18.44.056,26.74-4.737s8.239-11.718,8.207-15.438l0-.627C780.245,1334.568,779.637,1334.217,778.892,1334.215Zm-8.765,15.741c-7.4,4.272-18.453,4.3-24.557,4.28-.031-3.526.013-9.906,7.412-14.179s18.452-4.3,24.557-4.279C777.569,1339.3,777.526,1345.685,770.126,1349.956Z" transform="translate(-726.259 -1324.657)" fill="#ced3f8"/>
          <path id="Path_759" data-name="Path 759" d="M1715.559,1575.032a18.452,18.452,0,0,0,12.185-1.62c4.614-2.664,4.615-6.982,0-9.645s-12.093-2.664-16.7,0c-3.3,1.9-4.223,4.651-2.807,7.037-5.47-1.831-14.189-3.564-18.174.114,2.512,1.449,12.65,7.3,12.65,7.3l12.649,7.3C1721.728,1583.222,1718.727,1578.189,1715.559,1575.032Z" transform="translate(-1308.509 -1464.538)" fill="#ced3f8"/>
        </g>
        <g id="Shield" transform="translate(441.791)">
          <g id="Group_162" data-name="Group 162">
            <path id="Path_760" data-name="Path 760" d="M1860.357,312.339c-5.95-5.855-9.875-14.365-13.949-21.653q0,15.783,0,31.564c-.045,24.74,13.949,53.829,32.79,69.723-5.992-25.576-4.915-52.391-4.87-78.473C1869.432,316.326,1865.519,317.42,1860.357,312.339Z" transform="translate(-1846.406 -289.643)" fill="url(#linear-gradient-6)"/>
            <path id="Path_761" data-name="Path 761" d="M1937.623,367.723c-8.8-2.87-13.973-10.61-18.917-17.827h0c-.045,26.082-1.122,52.9,4.87,78.473h0c17.652,4.579,32.983-20.822,32.983-31.749V365.056C1951.662,367.882,1945.862,370.408,1937.623,367.723Z" transform="translate(-1890.785 -326.04)" fill="url(#linear-gradient-7)"/>
            <path id="Path_762" data-name="Path 762" d="M1960.931,409.569c-10.83,6.811-24.01,43.18-35.214,43.884.607,3.888,1.332,7.757,2.231,11.6h0c17.652,4.579,32.983-20.822,32.983-31.749Z" transform="translate(-1895.159 -362.721)" fill="url(#linear-gradient-8)" style="mix-blend-mode: multiply;isolation: isolate"/>
            <path id="Path_763" data-name="Path 763" d="M1874.329,311.836l3.232-1.865c-4.893,2.825-8.809,3.92-13.97-1.16a95.115,95.115,0,0,1-15.376-20.831l-1.8,1.043c4.074,7.289,8,15.8,13.949,21.653C1865.522,315.757,1869.435,314.662,1874.329,311.836Z" transform="translate(-1846.409 -287.98)" fill="url(#linear-gradient-9)"/>
            <path id="Path_764" data-name="Path 764" d="M1941.017,362.882c-8.8-2.869-13.972-10.608-18.916-17.826l-3.232,1.865c4.944,7.217,10.115,14.956,18.917,17.827,8.239,2.685,14.04.159,18.936-2.667l1.8-1.042C1953.629,363.864,1949.255,365.567,1941.017,362.882Z" transform="translate(-1890.949 -323.065)" fill="url(#linear-gradient-10)"/>
            <path id="Path_765" data-name="Path 765" d="M1989.392,387.58v31.563c0,7.479-7.184,21.736-17.375,28.522,11.359-5.493,19.181-21.368,19.181-29.564V386.538h0Z" transform="translate(-1923.619 -348.564)" fill="url(#linear-gradient-11)"/>
          </g>
        </g>
        <g id="Little_gear" data-name="Little gear" transform="translate(259.925 48.973)">
          <g id="Group_163" data-name="Group 163">
            <path id="Path_766" data-name="Path 766" d="M1453.343,575.779c-1.66.964-2.061,5.1-2.066,7.057l12.465-7.242c0-1.958.406-6.094,2.066-7.057Z" transform="translate(-1421.653 -509.411)" fill="#5555c6"/>
            <path id="Path_767" data-name="Path 767" d="M1386.908,453.765l-12.464,7.243c1.709.987,5.534,2.744,7.2,1.778l12.465-7.244C1392.443,456.509,1388.618,454.753,1386.908,453.765Z" transform="translate(-1374.424 -438.861)" fill="#7f7ff4"/>
            <path id="Path_768" data-name="Path 768" d="M1438.972,494.225c-5.928-3.422-10.712-11.707-10.693-18.518.011-3.381,1.2-5.761,3.129-6.88l-12.463,7.243c-1.926,1.119-3.12,3.5-3.13,6.88-.018,6.812,4.763,15.1,10.691,18.518,2.981,1.72,5.681,1.881,7.627.748l12.466-7.242C1444.649,496.106,1441.951,495.946,1438.972,494.225Z" transform="translate(-1399.855 -448.12)" fill="url(#linear-gradient-12)"/>
            <path id="Path_769" data-name="Path 769" d="M1512.876,540.95l-.019,6.955,12.464-7.243.02-6.956Z" transform="translate(-1459.506 -488.002)" fill="#5555c6"/>
            <path id="Path_770" data-name="Path 770" d="M1448.482,418.673l-12.464,7.244,6.054,3.495,12.464-7.243Z" transform="translate(-1412.273 -417.29)" fill="#7f7ff4"/>
            <path id="Path_771" data-name="Path 771" d="M1502.684,495.107c-.286-1.162-.634-2.331-1.034-3.492-1.391-3.54,1.752-6.293,3.243-7.159L1492.43,491.7c-1.493.867-4.634,3.619-3.243,7.159.4,1.162.747,2.33,1.034,3.491.693,3.513,5.828,7.135,7.892,8.326l12.464-7.243C1508.514,502.241,1503.378,498.618,1502.684,495.107Z" transform="translate(-1444.743 -457.727)" fill="#7f7ff4"/>
            <path id="Path_772" data-name="Path 772" d="M1471.318,442.558a4.814,4.814,0,0,1-1.364-1.193c-.809-.928-1.641-1.806-2.507-2.644-2.708-2.373-3.262-8.605-3.255-10.977l-12.464,7.243c-.008,2.372.548,8.6,3.256,10.976.862.838,1.7,1.717,2.5,2.646a4.844,4.844,0,0,0,1.365,1.192c2.324,1.342,5.225.235,6.555-.382l12.464-7.243C1476.543,442.793,1473.642,443.9,1471.318,442.558Z" transform="translate(-1421.931 -422.866)" fill="url(#linear-gradient-13)"/>
            <path id="Path_773" data-name="Path 773" d="M1419.826,485.742c.711-2.7,5.851-.391,7.916.8l.019-6.955c-2.064-1.191-7.2-4.813-7.892-8.326-.287-1.161-.636-2.329-1.034-3.491-1.411-3.586,1.833-6.363,3.3-7.192l-4.266-7.387c-1.331.617-4.231,1.723-6.555.382a4.843,4.843,0,0,1-1.365-1.192c-.807-.929-1.643-1.807-2.5-2.646-2.708-2.372-3.264-8.6-3.256-10.976l-6.053-3.495c-.007,2.371-.594,7.945-3.3,7.192a14.231,14.231,0,0,0-2.52-.255,2.371,2.371,0,0,1-1.378-.391c-2.354-1.359-5.316-5.85-6.516-7.928l-4.291,2.447c1.661,2.635,4.667,9.019,3.241,10.968a14.133,14.133,0,0,0-1.048,2.289c-.712,2.7-5.852.392-7.915-.8l-.02,6.955c2.063,1.192,7.2,4.814,7.893,8.326q.436,1.747,1.033,3.492c1.409,3.586-1.834,6.363-3.293,7.195l4.263,7.393c1.207-.694,4.185-1.757,6.539-.4a4.843,4.843,0,0,1,1.375,1.2c.808.929,1.647,1.817,2.513,2.649,2.7,2.981,3.256,8.6,3.248,10.973l6.053,3.495c.007-2.371.595-7.945,3.3-7.192a13.648,13.648,0,0,0,2.518.255,2.37,2.37,0,0,1,1.376.391c2.356,1.36,5.317,5.853,6.523,7.939l4.285-2.456c-1.449-2.513-4.666-9.02-3.24-10.97A13.4,13.4,0,0,0,1419.826,485.742Zm-18.784-5.754c-5.927-3.422-10.708-11.707-10.69-18.518s4.833-9.555,10.761-6.133,10.706,11.712,10.686,18.516S1406.964,483.407,1401.042,479.988Z" transform="translate(-1374.391 -426.639)" fill="#ced3f8"/>
            <path id="Path_774" data-name="Path 774" d="M1497.989,567.274c-2.064-1.191-7.2-3.5-7.916-.8a13.4,13.4,0,0,1-1.048,2.289c-1.426,1.95,1.791,8.457,3.24,10.97l12.465-7.244a36.289,36.289,0,0,1-3.214-7.264Z" transform="translate(-1444.638 -507.37)" fill="#7f7ff4"/>
            <path id="Path_775" data-name="Path 775" d="M1499.7,465.2l-12.464,7.243,4.266,7.387,12.463-7.244Z" transform="translate(-1443.757 -445.891)" fill="#5555c6"/>
            <path id="Path_776" data-name="Path 776" d="M1412.894,415.084l-12.464,7.243c1.2,2.078,4.161,6.569,6.516,7.928a2.371,2.371,0,0,0,1.378.391,14.2,14.2,0,0,1,2.52.256c2.7.753,3.292-4.82,3.3-7.192l3.581-2.081A35.6,35.6,0,0,1,1412.894,415.084Z" transform="translate(-1390.397 -415.084)" fill="#5555c6"/>
          </g>
        </g>
        <g id="Shadow_under_phone" data-name="Shadow under phone" transform="translate(305.88 350.024)">
          <path id="Path_777" data-name="Path 777" d="M1789.016,1196.43H1504.882c-15.9,0-12.492,9.5-4.541,14.093l126.517,73.385c4.362,2.449,18.642,2.884,34.538,2.884h127.619Z" transform="translate(-1493.664 -1196.43)" fill="url(#linear-gradient-14)" style="mix-blend-mode: multiply;isolation: isolate"/>
        </g>
        <g id="Big_gear" data-name="Big gear" transform="translate(414.083 156.229)">
          <g id="Group_164" data-name="Group 164">
            <path id="Path_778" data-name="Path 778" d="M1851.78,1016.227l-25.462,14.8a.176.176,0,0,1-.028.015l25.46-14.794C1851.76,1016.237,1851.77,1016.233,1851.78,1016.227Z" transform="translate(-1806.333 -891.864)" fill="#17c5cc"/>
            <path id="Path_779" data-name="Path 779" d="M1881.945,1106.094l25.461-14.8a5.238,5.238,0,0,0-1.557,1.436l-25.46,14.8A5.179,5.179,0,0,1,1881.945,1106.094Z" transform="translate(-1839.588 -938.009)" fill="#a7aed6"/>
            <path id="Path_780" data-name="Path 780" d="M1824.344,949.373l-25.46,14.8a5.166,5.166,0,0,1-2.108.641l25.459-14.794A5.21,5.21,0,0,0,1824.344,949.373Z" transform="translate(-1788.191 -850.769)" fill="#f2f2f7"/>
            <path id="Path_781" data-name="Path 781" d="M1930.668,1149.376l25.462-14.8a5.468,5.468,0,0,0-2.029,3.172l-25.461,14.8A5.477,5.477,0,0,1,1930.668,1149.376Z" transform="translate(-1869.248 -964.615)" fill="#a7aed6"/>
            <path id="Path_782" data-name="Path 782" d="M1808.405,885.11l-25.46,14.8a5.49,5.49,0,0,1-3.811.153l25.459-14.8A5.489,5.489,0,0,0,1808.405,885.11Z" transform="translate(-1777.346 -811.266)" fill="#f2f2f7"/>
            <path id="Path_783" data-name="Path 783" d="M1981.083,1180.026l25.462-14.8c-1,.9-1.312,3.094-1.315,4.6l-25.46,14.8C1979.774,1183.119,1980.088,1180.929,1981.083,1180.026Z" transform="translate(-1900.677 -983.457)" fill="#a7aed6"/>
            <path id="Path_784" data-name="Path 784" d="M1774.549,838.892l25.461-14.8c1.346.777,3.477,1.635,4.756,1.172l-25.461,14.8C1778.025,840.526,1775.9,839.668,1774.549,838.892Z" transform="translate(-1774.527 -773.76)" fill="#f2f2f7"/>
            <path id="Path_785" data-name="Path 785" d="M2029.877,1195.925l25.46-14.794c-.7,1.327-.465,3.942-.123,5.642l-25.461,14.8C2029.412,1199.869,2029.175,1197.251,2029.877,1195.925Z" transform="translate(-1931.199 -993.231)" fill="#a7aed6"/>
            <path id="Path_786" data-name="Path 786" d="M1783.355,785.78l25.461-14.8a16.564,16.564,0,0,0,2.576,1.879,5.348,5.348,0,0,0,2.552.87l-25.461,14.8a5.347,5.347,0,0,1-2.553-.868A16.7,16.7,0,0,1,1783.355,785.78Z" transform="translate(-1779.941 -741.113)" fill="#f2f2f7"/>
            <path id="Path_787" data-name="Path 787" d="M2073.675,1195.33l25.461-14.8c-.421,1.7.41,4.661,1.113,6.492l-25.46,14.8C2074.085,1199.992,2073.252,1197.027,2073.675,1195.33Z" transform="translate(-1958.331 -992.865)" fill="#a7aed6"/>
            <path id="Path_788" data-name="Path 788" d="M1804.916,744.6l25.461-14.8a17.241,17.241,0,0,0,4.109,3.8,4.166,4.166,0,0,0,1.148.479l-25.462,14.8a4.2,4.2,0,0,1-1.148-.478A17.226,17.226,0,0,1,1804.916,744.6Z" transform="translate(-1793.194 -715.802)" fill="#f2f2f7"/>
            <path id="Path_789" data-name="Path 789" d="M1837.81,718.168l25.461-14.8c1.013,1.756,2.919,4.461,4.667,5.469l-25.461,14.8C1840.73,722.628,1838.823,719.924,1837.81,718.168Z" transform="translate(-1813.414 -699.552)" fill="#e4e6f9"/>
            <path id="Path_790" data-name="Path 790" d="M2109.8,1178.477l25.46-14.8c-.135,1.992,1.326,5.171,2.383,7l-25.461,14.8C2111.129,1183.649,2109.667,1180.468,2109.8,1178.477Z" transform="translate(-1980.604 -982.504)" fill="#bdc1e4"/>
            <path id="Path_791" data-name="Path 791" d="M1849.923,729.733l25.461-14.8c2.426-.568,4.477-1.207,6.626-1.647l-25.459,14.8C1854.4,728.527,1852.349,729.166,1849.923,729.733Z" transform="translate(-1820.86 -705.648)" fill="#f2f2f7"/>
            <path id="Path_792" data-name="Path 792" d="M2114.83,1165.961l25.461-14.8a36.146,36.146,0,0,1-5.012,4.822l-25.46,14.8A36.193,36.193,0,0,0,2114.83,1165.961Z" transform="translate(-1980.618 -974.812)" fill="#a7aed6"/>
            <path id="Path_793" data-name="Path 793" d="M1864.935,708.746l25.461-14.8,5.709-.493-25.463,14.8Z" transform="translate(-1830.088 -693.457)" fill="#f7f7fc"/>
            <path id="Path_794" data-name="Path 794" d="M2140.073,1165.052l25.462-14.8-3.311,4.645-25.46,14.8Z" transform="translate(-1997.182 -974.253)" fill="#a7aed6"/>
            <path id="Path_795" data-name="Path 795" d="M2135.971,1146.52l25.461-14.8c.171,2.274,2.248,5.441,3.615,7.141l-25.461,14.8C2138.219,1151.959,2136.141,1148.795,2135.971,1146.52Z" transform="translate(-1996.694 -962.86)" fill="#bdc1e4"/>
            <path id="Path_796" data-name="Path 796" d="M1879.747,708.254l25.463-14.8c.825,2.123,2.647,5.715,4.631,6.86l-25.462,14.8C1882.4,713.968,1880.573,710.376,1879.747,708.254Z" transform="translate(-1839.193 -693.457)" fill="#e4e6f9"/>
            <path id="Path_797" data-name="Path 797" d="M1891.77,726.057l25.462-14.8a50.885,50.885,0,0,1,6.58.676l-25.46,14.8A50.563,50.563,0,0,0,1891.77,726.057Z" transform="translate(-1846.583 -704.401)" fill="#f2f2f7"/>
            <path id="Path_798" data-name="Path 798" d="M1934.573,712.722l-25.461,14.8a1.286,1.286,0,0,1-.259.115l25.46-14.8A1.258,1.258,0,0,0,1934.573,712.722Z" transform="translate(-1857.085 -705.299)" fill="#17c5cc"/>
            <path id="Path_799" data-name="Path 799" d="M2138.894,1129.058l25.46-14.8a49.991,49.991,0,0,1-2.922,6.728l-25.461,14.8A49.985,49.985,0,0,0,2138.894,1129.058Z" transform="translate(-1996.694 -952.127)" fill="#a7aed6"/>
            <path id="Path_800" data-name="Path 800" d="M1911.4,711.139l25.462-14.8,6.363,1.71-25.461,14.8Z" transform="translate(-1858.65 -695.231)" fill="#f2f2f7"/>
            <path id="Path_801" data-name="Path 801" d="M1927.916,715.578l25.46-14.8c.454,2.245,1.8,6.348,3.99,7.826l-25.462,14.8C1929.715,721.925,1928.372,717.822,1927.916,715.578Z" transform="translate(-1868.802 -697.959)" fill="#e4e6f9"/>
            <path id="Path_802" data-name="Path 802" d="M2160.068,1119.527l25.459-14.8-1.719,6.325-25.461,14.8Z" transform="translate(-2010.449 -946.268)" fill="#a7aed6"/>
            <path id="Path_803" data-name="Path 803" d="M2150.511,1101.4l25.461-14.8c.416,2.551,3.11,5.539,4.738,6.984l-25.458,14.8C2153.621,1106.943,2150.927,1103.952,2150.511,1101.4Z" transform="translate(-2005.632 -935.127)" fill="#d9ddf4"/>
            <path id="Path_804" data-name="Path 804" d="M1938.269,735.888l25.462-14.8c1.977.743,5.837,2.45,5.837,2.44l-25.461,14.8C1944.107,738.338,1940.248,736.631,1938.269,735.888Z" transform="translate(-1875.167 -710.444)" fill="#f2f2f7"/>
            <path id="Path_805" data-name="Path 805" d="M2151.356,1081.493l25.461-14.8a76.538,76.538,0,0,1-.845,7.671l-25.461,14.8A75.817,75.817,0,0,0,2151.356,1081.493Z" transform="translate(-2005.632 -922.888)" fill="#bdc1e4"/>
            <path id="Path_806" data-name="Path 806" d="M1980.555,727.45l-25.462,14.8a1.747,1.747,0,0,1-1.672-.024l25.461-14.8A1.742,1.742,0,0,0,1980.555,727.45Z" transform="translate(-1884.481 -714.338)" fill="#f2f2f7"/>
            <path id="Path_807" data-name="Path 807" d="M2153.239,1080.111l25.46-14.8a1.476,1.476,0,0,0-.533.533l-25.461,14.8A1.463,1.463,0,0,1,2153.239,1080.111Z" transform="translate(-2006.981 -922.038)" fill="#a7aed6"/>
            <path id="Path_808" data-name="Path 808" d="M1961.913,729.74l25.46-14.8,6.583,3.8-25.461,14.8Z" transform="translate(-1889.701 -706.665)" fill="#f2f2f7"/>
            <path id="Path_809" data-name="Path 809" d="M1978.995,739.6l25.461-14.8c-.007,2.244.65,6.765,3.248,8.582l-25.461,14.8C1979.645,746.366,1978.988,741.846,1978.995,739.6Z" transform="translate(-1900.201 -712.727)" fill="#e4e6f9"/>
            <path id="Path_810" data-name="Path 810" d="M2167.172,1063.229l25.459-14.8-.021,7.552-25.462,14.8Z" transform="translate(-2015.859 -911.662)" fill="#a7aed6"/>
            <path id="Path_811" data-name="Path 811" d="M2152.346,1046.291l25.46-14.8c.623,2.9,3.9,5.469,5.726,6.526l-25.459,14.8C2156.242,1051.76,2152.969,1049.191,2152.346,1046.291Z" transform="translate(-2006.76 -901.25)" fill="#d9ddf4"/>
            <path id="Path_812" data-name="Path 812" d="M1987.424,761.876l25.461-14.8,5.2,3.667-25.461,14.8Z" transform="translate(-1905.382 -726.419)" fill="#f2f2f7"/>
            <path id="Path_813" data-name="Path 813" d="M2150.044,1026.445l25.459-14.8q.581,3.854.888,7.647l-25.46,14.8C2150.73,1031.567,2150.429,1029.014,2150.044,1026.445Z" transform="translate(-2005.345 -889.05)" fill="#a7aed6"/>
            <path id="Path_814" data-name="Path 814" d="M2151.055,1021.8l25.462-14.8a2.039,2.039,0,0,0-1.013,1.789l-25.459,14.8A2.027,2.027,0,0,1,2151.055,1021.8Z" transform="translate(-2005.345 -886.196)" fill="#a7aed6"/>
            <path id="Path_815" data-name="Path 815" d="M2029.121,756.8l-25.46,14.8a2.565,2.565,0,0,1-2.734-.2l25.461-14.8A2.562,2.562,0,0,0,2029.121,756.8Z" transform="translate(-1913.682 -732.27)" fill="#f2f2f7"/>
            <path id="Path_816" data-name="Path 816" d="M2136.02,967.873l25.462-14.8,2.083,6.724L2138.1,974.6Z" transform="translate(-1996.724 -853.046)" fill="#bdc1e4"/>
            <path id="Path_817" data-name="Path 817" d="M2033.745,800.47l25.46-14.8,4.875,5.019-25.461,14.8Z" transform="translate(-1933.856 -750.143)" fill="#f2f2f7"/>
            <path id="Path_818" data-name="Path 818" d="M2028.964,778.723l25.461-14.8c-.514,1.872-.81,5.9,1.623,8.379l-25.46,14.8C2028.154,784.625,2028.45,780.592,2028.964,778.723Z" transform="translate(-1930.7 -736.774)" fill="#bdc1e4"/>
            <path id="Path_819" data-name="Path 819" d="M2013.037,764.1l25.463-14.8,6.352,5.632-25.461,14.8Z" transform="translate(-1921.127 -727.789)" fill="#f2f2f7"/>
            <path id="Path_820" data-name="Path 820" d="M2141.427,985.325l25.461-14.8a7.928,7.928,0,0,0,3.867,4.515,11.087,11.087,0,0,0,2.592,1.1l-25.461,14.8a11.292,11.292,0,0,1-2.594-1.1A7.917,7.917,0,0,1,2141.427,985.325Z" transform="translate(-2000.048 -863.773)" fill="#e4e6f9"/>
            <path id="Path_821" data-name="Path 821" d="M2158.191,999.9l25.461-14.8,1.688,8.292-25.462,14.8Z" transform="translate(-2010.353 -872.729)" fill="#bdc1e4"/>
            <path id="Path_822" data-name="Path 822" d="M2136.973,957.531l25.461-14.8c-1.138.662-1.981,1.889-1.322,3.984l-25.461,14.8C2134.992,959.421,2135.835,958.194,2136.973,957.531Z" transform="translate(-1996.355 -846.689)" fill="#a7aed6"/>
            <path id="Path_823" data-name="Path 823" d="M2076.03,799.529l-25.461,14.8a2.944,2.944,0,0,1-3.093.057,4.609,4.609,0,0,1-1.08-.888l25.461-14.8a4.683,4.683,0,0,0,1.078.89A2.946,2.946,0,0,0,2076.03,799.529Z" transform="translate(-1941.632 -758.149)" fill="#e4e6f9"/>
            <path id="Path_824" data-name="Path 824" d="M2110.649,907.106l25.46-14.8,3.264,6.593L2113.91,913.7Z" transform="translate(-1981.129 -815.693)" fill="#f2f2f7"/>
            <path id="Path_825" data-name="Path 825" d="M2075.773,850.022l25.462-14.795,4.21,6-25.462,14.8Z" transform="translate(-1959.69 -780.604)" fill="#f2f2f7"/>
            <path id="Path_826" data-name="Path 826" d="M2061.292,811.9l25.462-14.8,5.685,7.069-25.459,14.8Z" transform="translate(-1950.789 -757.168)" fill="#f2f2f7"/>
            <path id="Path_827" data-name="Path 827" d="M2074.036,830.248l25.459-14.8a6.678,6.678,0,0,0-.1,7.62l-25.462,14.795A6.671,6.671,0,0,1,2074.036,830.248Z" transform="translate(-1957.845 -768.447)" fill="#bdc1e4"/>
            <path id="Path_828" data-name="Path 828" d="M2136.431,933.941l25.463-14.8,3.271,8.444-25.461,14.8Z" transform="translate(-1996.977 -832.188)" fill="#bdc1e4"/>
            <path id="Path_829" data-name="Path 829" d="M2119.111,924.217l25.463-14.794a6.16,6.16,0,0,0,2.551,2.8,7.394,7.394,0,0,0,4.122.941l-25.463,14.8a7.391,7.391,0,0,1-4.121-.94A6.182,6.182,0,0,1,2119.111,924.217Z" transform="translate(-1986.33 -826.212)" fill="#e4e6f9"/>
            <path id="Path_830" data-name="Path 830" d="M2111.485,890.729l25.46-14.794a4.617,4.617,0,0,0-1.79,6.309l-25.46,14.8A4.618,4.618,0,0,1,2111.485,890.729Z" transform="translate(-1980.176 -805.627)" fill="#bdc1e4"/>
            <path id="Path_831" data-name="Path 831" d="M2086.7,865.605l25.462-14.8a5.259,5.259,0,0,0,1.74,1.694,4.82,4.82,0,0,0,4.685-.072l-25.461,14.8a4.815,4.815,0,0,1-4.685.069A5.27,5.27,0,0,1,2086.7,865.605Z" transform="translate(-1966.407 -790.182)" fill="#e4e6f9"/>
            <path id="Path_832" data-name="Path 832" d="M2103.378,869.818l25.461-14.8,4.637,8.033-25.46,14.794Z" transform="translate(-1976.659 -792.77)" fill="#f2f2f7"/>
            <path id="Path_833" data-name="Path 833" d="M1925.783,876.183l.022-7.553c-1.831-1.057-5.1-3.626-5.727-6.526-.2-2.524-.5-5.077-.887-7.647.114-2.525,3.08-2.407,4.826-1.939l-1.687-8.289a11.293,11.293,0,0,1-2.593-1.1,7.917,7.917,0,0,1-3.866-4.513l-2.083-6.726c-1.054-3.351,1.737-4.483,3.432-4.627l-3.273-8.446a7.391,7.391,0,0,1-4.121-.94,6.182,6.182,0,0,1-2.553-2.808l-3.26-6.591a4.621,4.621,0,0,1,1.836-6.337l-4.637-8.028a4.815,4.815,0,0,1-4.685.069,5.271,5.271,0,0,1-1.741-1.694l-4.21-6a6.671,6.671,0,0,1,.108-7.618L1885,771.793c-.832,1.162-2.674,2.653-4.659,1.5a4.609,4.609,0,0,1-1.08-.888l-4.874-5.018c-2.435-2.476-2.138-6.509-1.624-8.379l-6.354-5.632c-.477,1.769-1.917,4.434-4.666,2.81l-5.2-3.668c-2.6-1.818-3.255-6.339-3.248-8.582l-6.582-3.8c-.006,2.244-.679,5.987-3.271,4.81,0,.008-3.86-1.7-5.838-2.442-2.19-1.478-3.533-5.58-3.989-7.825l-6.364-1.71c.447,2.2.707,5.894-.981,6.425a50.553,50.553,0,0,0-6.582-.677c-1.984-1.146-3.806-4.737-4.633-6.859l-5.707.492c.818,2.1,1.786,5.712.843,7.148-2.151.441-4.2,1.08-6.627,1.647-1.747-1.008-3.654-3.712-4.667-5.469l-4.666,2.66c1.089,1.884,2.611,5.215,2.367,7.2a35.337,35.337,0,0,0-5.119,4.609,4.206,4.206,0,0,1-1.148-.478,17.227,17.227,0,0,1-4.108-3.8l-3.3,4.651c1.259,1.559,3.113,4.374,3.539,6.583a48.906,48.906,0,0,0-3.417,7.38,5.345,5.345,0,0,1-2.552-.868,16.7,16.7,0,0,1-2.576-1.88l-1.728,6.312a18,18,0,0,1,4.313,5.578,77.16,77.16,0,0,0-1.222,9.746c-1.28.464-3.408-.394-4.756-1.171l-.021,7.551a15.231,15.231,0,0,1,4.725,4.277,111.212,111.212,0,0,0,1.184,11.462c-1.011.858-2.875.7-4.12.371l1.679,8.278a11.418,11.418,0,0,1,2.567,1.1,10.2,10.2,0,0,1,2.191,1.678c1.027,4.116,2.256,8.25,3.675,12.362a4.182,4.182,0,0,1-3.315,1.834l3.271,8.457a7.666,7.666,0,0,1,4.5,1.178c1.806,4.158,3.8,8.275,5.957,12.316a4.94,4.94,0,0,1-2.351,3.18l4.637,8.033a4.9,4.9,0,0,1,4-.388c2.447,3.881,5.047,7.664,7.77,11.3a7.129,7.129,0,0,1-1.253,4.329l5.687,7.072a4.225,4.225,0,0,1,3.255-1.908q4.362,4.987,9.052,9.447a11.006,11.006,0,0,1-.06,5.248l6.343,5.628c.335-1.224,1.133-2.87,2.359-3.33a111.729,111.729,0,0,0,9.575,6.872,15.349,15.349,0,0,1,1.185,5.9l6.581,3.8c0-1.511.318-3.7,1.313-4.6a74.438,74.438,0,0,0,9.362,3.873,18.584,18.584,0,0,1,2.431,6.191l6.357,1.705c-.342-1.7-.579-4.319.123-5.646a47.475,47.475,0,0,0,8.454.687,19.226,19.226,0,0,1,3.618,6.072l5.708-.493c-.7-1.832-1.536-4.8-1.114-6.493a34.362,34.362,0,0,0,6.928-2.28c1.739,1.02,3.633,3.7,4.645,5.451l4.665-2.662c-1.057-1.831-2.52-5.012-2.382-7a36.2,36.2,0,0,0,5.011-4.824,3.98,3.98,0,0,1,1.275.5,17.159,17.159,0,0,1,4.1,3.79l3.309-4.645c-1.367-1.7-3.444-4.865-3.615-7.139a49.985,49.985,0,0,0,2.923-6.729c.8-.311,1.967.1,3.113.764a16.417,16.417,0,0,1,2.586,1.888l1.721-6.325c-1.631-1.443-4.325-4.434-4.74-6.984a75.854,75.854,0,0,0,.845-7.671C1921.146,874.09,1924.085,875.2,1925.783,876.183Zm-76.161,4.033c-24.149-13.944-43.669-47.763-43.59-75.5.077-27.764,19.727-38.945,43.876-25s43.656,47.732,43.577,75.494C1893.408,882.947,1873.771,894.158,1849.623,880.216Z" transform="translate(-1774.493 -717.063)" fill="#d0d4f6"/>
            <path id="Path_834" data-name="Path 834" d="M1856.351,871.5c-.08,27.74,19.441,61.559,43.59,75.5,18.795,10.848,34.851,6.46,41.086-9.1a43.373,43.373,0,0,1-15.625-5.7c-24.148-13.943-43.669-47.764-43.591-75.5a43.088,43.088,0,0,1,2.775-15.914C1868.136,838.538,1856.411,850.074,1856.351,871.5Z" transform="translate(-1824.811 -783.854)" fill="url(#linear-gradient-15)"/>
          </g>
          <path id="Path_835" data-name="Path 835" d="M1835.562,804.713c.059-21.262,11.6-32.783,27.853-30.757V735.847c-.114-.421-.208-.817-.279-1.165l-6.364-1.71c.447,2.2.707,5.894-.981,6.425a50.553,50.553,0,0,0-6.582-.677c-1.984-1.146-3.806-4.737-4.633-6.859l-5.707.492c.818,2.1,1.786,5.712.843,7.148-2.151.441-4.2,1.08-6.627,1.647-1.747-1.008-3.654-3.712-4.667-5.469l-4.666,2.66c1.089,1.884,2.611,5.215,2.367,7.2a35.593,35.593,0,0,0-3.588,3.045v96.9q1.806,3.822,3.8,7.578a4.94,4.94,0,0,1-2.351,3.18l4.637,8.033a4.9,4.9,0,0,1,4-.388c2.447,3.881,5.047,7.664,7.77,11.3a7.129,7.129,0,0,1-1.253,4.329l5.687,7.072a4.225,4.225,0,0,1,3.255-1.908q4.362,4.987,9.052,9.447a11.006,11.006,0,0,1-.06,5.248l6.343,5.628V867.75C1847.068,851.031,1835.5,826.075,1835.562,804.713Z" transform="translate(-1804.022 -717.063)" fill="#f1f1f6" style="mix-blend-mode: multiply;isolation: isolate"/>
          <path id="Path_836" data-name="Path 836" d="M1925.4,932.21c-24.148-13.943-43.669-47.764-43.591-75.5a43.088,43.088,0,0,1,2.775-15.914c-16.449-2.257-28.174,9.279-28.234,30.709-.062,21.362,11.506,46.317,27.853,63.037h45.714C1928.432,933.861,1926.927,933.091,1925.4,932.21Z" transform="translate(-1824.811 -783.854)" fill="url(#linear-gradient-14)" style="mix-blend-mode: multiply;isolation: isolate"/>
        </g>
        <g id="Mobile_phone" data-name="Mobile phone" transform="translate(295.391 21.559)">
          <g id="Group_165" data-name="Group 165">
            <path id="Path_837" data-name="Path 837" d="M1466.44,671.152c0,9.178,6.508,20.444,14.458,25.035l127.6,73.671c7.95,4.59,14.457.836,14.457-8.343V462.192c0-9.178-6.507-20.446-14.457-25.037l-127.6-73.669c-7.95-4.591-14.458-.837-14.458,8.341Z" transform="translate(-1466.44 -354.748)" fill="#e8ecf7"/>
            <path id="Path_838" data-name="Path 838" d="M1476.653,351.876l0,.016c2.642-1.721,6.38-1.61,10.519.78l127.6,73.669c7.95,4.592,14.457,15.859,14.457,25.037V750.7c0,4.533-1.594,7.736-4.157,9.273l10.26-6.7v0c2.65-1.5,4.3-4.742,4.3-9.36V444.588c0-9.179-6.5-20.446-14.456-25.036l-127.6-73.669c-4.149-2.395-7.893-2.5-10.535-.769l-.008-.017Zm148.315,408.169-.016.006v0Z" transform="translate(-1472.718 -343.933)" fill="url(#linear-gradient-17)"/>
            <path id="Path_839" data-name="Path 839" d="M1489.994,416.084v276.11l138.364,79.885V495.969Z" transform="translate(-1480.918 -388.284)" fill="#fff"/>
          </g>
          <path id="Path_840" data-name="Path 840" d="M1653.033,1247.524c-5.72-3.3-10.355-.625-10.355,5.977s4.635,14.632,10.355,17.934,10.353.626,10.353-5.976S1658.749,1250.826,1653.033,1247.524Zm0,20.408a16.182,16.182,0,0,1-7.323-12.68c0-4.669,3.279-6.561,7.323-4.228a16.186,16.186,0,0,1,7.32,12.682C1660.353,1268.375,1657.075,1270.267,1653.033,1267.932Z" transform="translate(-1574.774 -898.503)" fill="#bbc0e6"/>
        </g>
        <g id="Shapes_on_screen" data-name="Shapes on screen" transform="translate(328.053 134.007)">
          <path id="Path_841" data-name="Path 841" d="M1551.212,709.519l3.749,2.165v-16.2l14.025,8.1v-4.328l-17.774-10.263Zm73.417,21.863v4.329l14.025,8.1V760l3.749,2.165V741.643Zm-69.669,44.551-3.749-2.162v20.522l3.749,2.163,14.025,8.1v-4.329l-14.025-8.1Zm83.694,64.517-14.025-8.1v4.329l14.025,8.1,3.749,2.163V826.418l-3.749-2.164Z" transform="translate(-1551.212 -668.491)" fill="#ced3f8"/>
          <path id="Path_842" data-name="Path 842" d="M1637.987,644.464c0-7.757,5.443-10.9,12.162-7.023s12.16,13.31,12.161,21.066-5.445,10.9-12.161,7.021S1637.986,652.219,1637.987,644.464Z" transform="translate(-1604.553 -635.78)" fill="#fc780b"/>
          <g id="Group_166" data-name="Group 166" transform="translate(17.774 153.29)">
            <path id="Path_843" data-name="Path 843" d="M1652.986,1089.875l-55.643-32.125v-3.4l55.643,32.125Z" transform="translate(-1597.342 -1046.366)" fill="#423eaf"/>
            <path id="Path_844" data-name="Path 844" d="M1617.633,1048.745l11.979,6.915v-3.4l-11.979-6.915Zm-20.291-11.716,14.913,8.611v-3.4l-14.913-8.61Zm40.948,20.241v3.4l14.7,8.484v-3.4Z" transform="translate(-1597.342 -1033.629)" fill="#423eaf"/>
          </g>
          <g id="Group_167" data-name="Group 167" transform="translate(15.032 60.87)">
            <path id="Path_845" data-name="Path 845" d="M1644.109,875.127V862.494l16.517,9.536v12.632l3.214,5.716-11.464-.537-10.515-12.152Z" transform="translate(-1621.967 -836.012)" fill="#facfa7"/>
            <path id="Path_846" data-name="Path 846" d="M1647.694,871.931a28.362,28.362,0,0,0,8.26,7.638c3.055,1.764,5.886,2.338,8.258,1.9V872.03l-16.517-9.536Z" transform="translate(-1625.552 -836.011)" fill="#f4c29a"/>
            <path id="Path_847" data-name="Path 847" d="M1660.127,824.706v-1.75c.022-.364.051-.72.05-1.1,0-9.588-6.73-21.245-15.032-26.04s-15.035-.907-15.035,8.68v5.361l.059.034c.6,9.3,7.066,20.09,14.974,24.658s14.376,1.245,14.974-7.368l.01.006v-.216c.025-.363.051-.72.05-1.1S1660.152,825.1,1660.127,824.706Z" transform="translate(-1614.743 -793.761)" fill="#fcd1a9"/>
            <path id="Path_848" data-name="Path 848" d="M1629.815,804.855c.359,2.687.76-6.444,4.694-4.174s4.552,4.158,8.4,6.381,4.1-.407,7.448,1.528,4.434,8.237,8.63,7.206c4.036-.992,5.831-7.109.526-13.625-3.747-4.6-6.375-5.356-16.812-7.321C1632.394,792.909,1628.725,796.673,1629.815,804.855Z" transform="translate(-1614.449 -794.122)" fill="#423eaf"/>
            <path id="Path_849" data-name="Path 849" d="M1628.886,901.258c0,5.259-3.588,5.287-8.258,2.592s-8.258-7.444-8.26-12.127c-4.956-2.863-26.088-7.034-21.493,16.838,6.083,3.514,29.752,17.178,29.752,17.178l29.753,17.179C1653.953,923.185,1633.843,904.12,1628.886,901.258Z" transform="translate(-1590.227 -852.607)" fill="#807dfb"/>
          </g>
          <path id="Path_850" data-name="Path 850" d="M1667.989,641.437a1.128,1.128,0,0,0-1.535.44l-8.9,16.047-4.1-7.1a1.129,1.129,0,1,0-1.956,1.129l5.1,8.825a1.128,1.128,0,0,0,1.963-.017l9.874-17.791A1.129,1.129,0,0,0,1667.989,641.437Z" transform="translate(-1612.763 -639.17)" fill="#fff"/>
        </g>
        <g id="Woman" transform="translate(114.407 218.597)">
          <path id="Path_851" data-name="Path 851" d="M1179.062,1419.6l-71.12.042-9.3,15.684h11.392l-4.89,8.241,73.919-.046Z" transform="translate(-1059.37 -1202.187)" fill="url(#linear-gradient-18)" style="mix-blend-mode: multiply;isolation: isolate"/>
          <path id="Path_852" data-name="Path 852" d="M1129.16,1029.358c0,1.471,5.05,20.15,6.134,22.017,1.56,2.692,4.275,5.5,4.927,7.239a27.582,27.582,0,0,1,1.3,6.078c0,.9-1.159,4.058-2.286,3.608s.516-2.094-.034-2.642c-.225.516-1.512,1.8-2.639,1.579s-.72-.632-.72-.632c-.6.217-1.4.223-1.613-.237-.509.169-1.354.6-1.571-.677s-.368-3.409-.894-4.229c-1.69-2.63-1.5-8.922-1.834-9.713s-6.543-16.328-7.072-19.614-.465-19.774,2.434-19.9S1129.16,1024.648,1129.16,1029.358Z" transform="translate(-1074.099 -951.777)" fill="#fcd1a9"/>
          <g id="Group_168" data-name="Group 168" transform="translate(26.905 102.578)">
            <path id="Path_853" data-name="Path 853" d="M1109.838,1417.221c-3.437.56-4.429,6.1-2.712,9.577a13.355,13.355,0,0,0,3.762,2.315s10.853,4.452,13.293,4.648,7.867-.716,8.311-4.89c-.417-2.544-2.56-3.244-5.191-4.808-3.422-2.032-6.358-4.98-9.117-6.336C1115.915,1416.61,1109.838,1417.221,1109.838,1417.221Z" transform="translate(-1090.983 -1303.2)" fill="url(#linear-gradient-19)"/>
            <path id="Path_854" data-name="Path 854" d="M1120.335,1408.328c-1.676.273-7.064,1.607-7.064,1.607s-2,5.586,1.154,6.573c6.112,1.92,11.32-2.183,8.917-3.561C1121.727,1412.026,1120.138,1410.981,1120.335,1408.328Z" transform="translate(-1094.884 -1297.836)" fill="#fcd1a9"/>
            <path id="Path_855" data-name="Path 855" d="M1124.7,1446.26c-2.512-.2-13.687-4.778-13.687-4.778a14.429,14.429,0,0,1-3.749-2.279,7.707,7.707,0,0,0,.454,1.21,13.353,13.353,0,0,0,3.762,2.315s10.853,4.453,13.293,4.648,7.867-.716,8.311-4.89c-.019-.084-.051-.163-.065-.249C1131.868,1445.671,1127,1446.447,1124.7,1446.26Z" transform="translate(-1091.574 -1316.815)" fill="#131147"/>
            <path id="Path_856" data-name="Path 856" d="M1134.168,1420.225c-.453-.6-1.513-2.216-3.378-.884a4.46,4.46,0,0,0-2.165,4.451c.228,1.39,4.25.361,4.4.151S1134.168,1420.225,1134.168,1420.225Z" transform="translate(-1104.672 -1304.29)" fill="#362e94"/>
            <path id="Path_857" data-name="Path 857" d="M1138.73,1423.588a8.205,8.205,0,0,0-3.648,3.548,1.1,1.1,0,1,1-1.988-.943,10.355,10.355,0,0,1,4.774-4.627,1.1,1.1,0,1,1,.862,2.022Z" transform="translate(-1107.388 -1305.919)" fill="#fff"/>
            <path id="Path_858" data-name="Path 858" d="M1147.531,1429.206a8.168,8.168,0,0,0-3.639,3.544,1.1,1.1,0,0,1-1.992-.944,10.326,10.326,0,0,1,4.77-4.627,1.1,1.1,0,1,1,.861,2.027Z" transform="translate(-1112.801 -1309.369)" fill="#fff"/>
            <path id="Path_859" data-name="Path 859" d="M1091.048,1122.405c1.651,20.438,4.388,39.892,4.388,56.295,0,18.764-3.257,38.531-3.457,54.257.174,4.823-5.3,8.6-7.613,4.344-.1-1.4.557-3.175.318-5.232-1.4-11.979-5.5-30.38-2.052-45.866-4.748-20.53-17.828-45.9-15.894-62.01C1072.683,1121.24,1086.5,1120.96,1091.048,1122.405Z" transform="translate(-1066.545 -1121.557)" fill="#fcd1a9"/>
          </g>
          <path id="Path_860" data-name="Path 860" d="M1123.322,955.834c5.36,2.631,7.316,6.652,7.316,14.636C1126.981,968.229,1123.322,955.834,1123.322,955.834Z" transform="translate(-1074.541 -917.109)" fill="#fcd1a9"/>
          <g id="Group_169" data-name="Group 169" transform="translate(42.94 111.217)">
            <path id="Path_861" data-name="Path 861" d="M1111.134,1143.978v3.431l-2.972-1.717Z" transform="translate(-1108.162 -1143.978)" fill="#423eaf"/>
          </g>
          <g id="Group_170" data-name="Group 170" transform="translate(19.616 110.616)">
            <path id="Path_862" data-name="Path 862" d="M1072.65,1438.612c-3.436.562-4.429,6.1-2.711,9.578a13.343,13.343,0,0,0,3.762,2.315s10.853,4.452,13.291,4.647,7.869-.716,8.31-4.888c-.415-2.545-2.559-3.245-5.19-4.809-3.422-2.033-6.357-4.981-9.114-6.338C1078.728,1438,1072.65,1438.612,1072.65,1438.612Z" transform="translate(-1060.835 -1324.387)" fill="url(#linear-gradient-20)"/>
            <path id="Path_863" data-name="Path 863" d="M1083.146,1429.715c-1.676.276-7.064,1.608-7.064,1.608s-1.994,5.587,1.154,6.573c6.112,1.92,11.321-2.181,8.919-3.561C1084.539,1433.414,1082.949,1432.368,1083.146,1429.715Z" transform="translate(-1064.735 -1319.02)" fill="#fcd1a9"/>
            <path id="Path_864" data-name="Path 864" d="M1087.506,1467.648c-2.513-.2-13.685-4.777-13.685-4.777a14.493,14.493,0,0,1-3.752-2.281,7.776,7.776,0,0,0,.457,1.212,13.345,13.345,0,0,0,3.762,2.315s10.853,4.452,13.291,4.647,7.869-.716,8.31-4.888c-.017-.087-.049-.164-.063-.251C1094.676,1467.058,1089.807,1467.837,1087.506,1467.648Z" transform="translate(-1061.422 -1337.999)" fill="#131147"/>
            <path id="Path_865" data-name="Path 865" d="M1096.98,1441.616c-.454-.6-1.514-2.217-3.38-.887a4.462,4.462,0,0,0-2.163,4.453c.229,1.387,4.251.36,4.4.152S1096.98,1441.616,1096.98,1441.616Z" transform="translate(-1074.523 -1325.476)" fill="#362e94"/>
            <path id="Path_866" data-name="Path 866" d="M1101.541,1444.979a8.182,8.182,0,0,0-3.644,3.546,1.1,1.1,0,1,1-1.989-.944,10.365,10.365,0,0,1,4.772-4.627,1.1,1.1,0,1,1,.861,2.025Z" transform="translate(-1077.24 -1327.105)" fill="#fff"/>
            <path id="Path_867" data-name="Path 867" d="M1110.341,1450.595a8.186,8.186,0,0,0-3.641,3.544,1.1,1.1,0,0,1-1.99-.944,10.344,10.344,0,0,1,4.771-4.627,1.1,1.1,0,0,1,.861,2.028Z" transform="translate(-1082.65 -1330.555)" fill="#fff"/>
            <path id="Path_868" data-name="Path 868" d="M1068.186,1144.024c0,18.786.2,39.8.2,56.2,0,18.764-2.163,38.07-2.362,53.8.173,4.825-5.3,8.6-7.615,4.345-.1-1.4.558-3.176.317-5.234-1.4-11.977-5.5-30.378-2.051-45.864-4.749-20.531-12.071-42.161-7.718-63.1C1054.9,1141.217,1063.641,1142.58,1068.186,1144.024Z" transform="translate(-1047.626 -1142.418)" fill="#fcd1a9"/>
          </g>
          <g id="Group_171" data-name="Group 171" transform="translate(12.495 21.567)">
            <path id="Path_869" data-name="Path 869" d="M1042.7,1000.412c1.557-14.154-5.125-27.51-6.351-36.354-.772-5.583-1.332-12.115,3.725-13.69,5.221-1.626,7.331-2.382,11.859-2.269,10.9.271,16.009,2.506,18.23,10.015,2.089,7.071,3.573,9.22,5.293,16.15.772,3.108-7.778,9.861-6.786,23.264,7.576,11.454,13.01,37.336,15.323,57.664.884,6.125-5.348,14-16.367,19.511-13.9,6.956-30.1,7.512-36.185,1.244a7.834,7.834,0,0,1-2.291-5.24C1029.134,1063.5,1033.234,1012.171,1042.7,1000.412Z" transform="translate(-1029.145 -933.914)" fill="url(#linear-gradient-21)"/>
            <path id="Path_870" data-name="Path 870" d="M1065.484,912.212c.192-3.355,11.665,3.32,11.412,7.742-.21,3.6-.679,7.228.669,7.692,1.566,1.13,6.223,13.081,3.427,15.874-9.748-3.989-14.828-12.434-23.5-15.765C1061.044,927.031,1064.861,923.074,1065.484,912.212Z" transform="translate(-1046.573 -911.302)" fill="#fcd1a9"/>
          </g>
          <g id="Group_172" data-name="Group 172" transform="translate(27.083)">
            <path id="Path_871" data-name="Path 871" d="M1071.047,887.829l3.453-8.642h21.889v13.172c0,7.276-4.9,13.173-10.945,13.173-5.863,0-10.607-5.555-10.891-12.531l-1.525.041Z" transform="translate(-1069.49 -869.994)" fill="#fcd1a9"/>
            <path id="Path_872" data-name="Path 872" d="M1085.048,932.554a10.591,10.591,0,0,0,8.552,5.751,3.5,3.5,0,0,0,.551,2.168,7.933,7.933,0,0,1-1.734-.154C1088.764,939.423,1086.123,936.4,1085.048,932.554Z" transform="translate(-1078.097 -902.798)" fill="#f2c39d"/>
            <path id="Path_873" data-name="Path 873" d="M1081.523,855.339a1.231,1.231,0,0,1,.2,0c11.941.3,12.837,9.224,12.179,10.7-3.789,1.353-6.175-1.21-8.554-1.014-1.147.094-5.809.727-7.735,3.193-2.074,2.657-1.412,6.9-3.369,6.8-.848-.034-1.1-2.88-2.371-2.957a2.133,2.133,0,0,0-2.008,2.558c.163,2.2,2.238,3.525,1.933,4.585-.511,1.745-4.877-1.388-4.793-7.615C1067.094,865.4,1071.223,854.921,1081.523,855.339Z" transform="translate(-1067.007 -855.326)" fill="#34318f"/>
          </g>
          <path id="Path_874" data-name="Path 874" d="M1024.53,1014.982s-2.343,5.844-2.349,5.852c-8.18-4.266-12.979-15.409-13.449-24.4-.628-12.111,11.919-32.578,12.57-33.551,3.175-4.733,10.715-.534,8.22,5.526-.542,1.227-13.39,22.354-12.015,29.5C1018.455,1002.842,1020.071,1011.9,1024.53,1014.982Z" transform="translate(-1004.088 -920.188)" fill="#fcd1a9"/>
          <path id="Path_875" data-name="Path 875" d="M1036.807,855.42c-12.689.9-14.212,13.414-19.258,16.8-3.013,2.019-9.734-1.793-13.672,5.024-4.527,7.837,2.8,10.68-2,14s-8.482,13.442-.487,19.66,18,.753,16.874-8.349c-.813-6.555,1.13-9.935,6.636-7.818,4.123,1.587,5.7-1.668,3.846-5.862,9.166.916-.447-16.566,13.4-23.792C1041.62,861.515,1036.807,855.42,1036.807,855.42Z" transform="translate(-996.716 -855.384)" fill="#34318f"/>
          <path id="Path_876" data-name="Path 876" d="M1046.023,1100.364c.959.622,6.215-.621,7.458-.621a26.293,26.293,0,0,1,7.535.932c2.864.922,4.818,1.97,2.864,2.421,1.055.226,3.542,1.243,1.583,1.809-.189.679-.9,1.582-3.054,1.507-.714.565-5.725,1.62-7.27,1.357-1.62.49-10.147.311-11.465-1.553A10.182,10.182,0,0,1,1046.023,1100.364Z" transform="translate(-1025.581 -1005.57)" fill="#fcd1a9"/>
        </g>
        <g id="Man_with_phone" data-name="Man with phone" transform="translate(204.673 245.761)">
          <g id="Group_175" data-name="Group 175" transform="translate(53.24 37.563)">
            <path id="Path_877" data-name="Path 877" d="M1375.765,1051.8c1.644,2.347,3.743.5,1.5-2.18S1372.992,1047.838,1375.765,1051.8Z" transform="translate(-1372.4 -1038.543)" fill="#facfa7"/>
            <path id="Path_878" data-name="Path 878" d="M1373.873,1060.987c2.267,1.753,3.723-.633.787-2.527S1370.046,1058.03,1373.873,1060.987Z" transform="translate(-1370.694 -1044.398)" fill="#facfa7"/>
            <path id="Path_879" data-name="Path 879" d="M1371.506,1067.143c2.079.68,2.514-1.409-.08-2.019S1368,1066,1371.506,1067.143Z" transform="translate(-1369.17 -1048.929)" fill="#facfa7"/>
            <g id="Group_173" data-name="Group 173" transform="translate(0.955 17.812)">
              <path id="Path_880" data-name="Path 880" d="M1379.136,1080.626c0-2.188-1.985-4.255-2.558-5.5a46.343,46.343,0,0,0-4.821-3.467c-1.106-.761,6.495-.031,7.715-1.9,0,0,6.613-1.121,7.937,1.777,1.462,3.745.071,5.9.071,8.131C1387.48,1079.669,1379.136,1082.813,1379.136,1080.626Z" transform="translate(-1371.647 -1069.548)" fill="#facfa7"/>
            </g>
            <g id="Group_174" data-name="Group 174" transform="translate(0.419)">
              <path id="Path_881" data-name="Path 881" d="M1380.808,1047.2l-10.55-4.394,8.732-19.484,10.55,4.39Z" transform="translate(-1370.258 -1023.318)" fill="#6b67e9"/>
              <path id="Path_882" data-name="Path 882" d="M1372.677,1043.979l8.19-18.277,9.2,3.832-8.191,18.274Z" transform="translate(-1371.745 -1024.783)" fill="#423eaf"/>
              <path id="Path_883" data-name="Path 883" d="M1398.02,1054.958l-.381-.758,8.732-19.488.382.762Z" transform="translate(-1387.089 -1030.322)" fill="#362e93"/>
              <path id="Path_884" data-name="Path 884" d="M1370.64,1074.646l-.382-.759,10.55,4.394.381.758Z" transform="translate(-1370.258 -1054.403)" fill="#5652cc"/>
            </g>
            <path id="Path_885" data-name="Path 885" d="M1403.51,1060.495a2.819,2.819,0,0,0-1.268-2.054c.013-2.559.174-5.886.174-5.886-1.369-.314-2.259,1.065-2.4,1.831-.213,1.132.136,3.61-.866,4.689-1.6,1.719-3.274,4.1-3.2,6.824l1.982,1.4,3.812-2.823,1.22.927S1403.427,1061.288,1403.51,1060.495Z" transform="translate(-1385.63 -1041.261)" fill="#facfa7"/>
          </g>
          <path id="Path_886" data-name="Path 886" d="M1342.949,1040.333a6.716,6.716,0,0,0-3.079-.715,8.136,8.136,0,0,0-4.294.264c-1.315.175-2.458,1.75-3.339,4.773l.041-.057c-.818,1.178-1.355,1.971-1.355,1.971l5.326,4.484c1.587-2.955,3.053-.475,5.923-3.441a6.841,6.841,0,0,0,2.53-3.1,3.548,3.548,0,0,0-.459-1.214,6.754,6.754,0,0,1,2.787-1.469c2.394-.631,5.4-.68,5.369-1.568C1350.268,1038.642,1342.983,1040.315,1342.949,1040.333Z" transform="translate(-1292.42 -995.661)" fill="#facfa7"/>
          <rect id="Rectangle_18" data-name="Rectangle 18" width="76.897" height="14.133" transform="translate(43.183 237.694)" fill="url(#linear-gradient-22)" style="mix-blend-mode: multiply;isolation: isolate"/>
          <rect id="Rectangle_19" data-name="Rectangle 19" width="76.898" height="14.133" transform="translate(8.509 217.286)" fill="url(#linear-gradient-23)" style="mix-blend-mode: multiply;isolation: isolate"/>
          <g id="Group_176" data-name="Group 176" transform="translate(0 105.627)">
            <path id="Path_887" data-name="Path 887" d="M1230.99,1490.9c0-11.1,7.036-11.424,7.036-11.424s3.811,0,10-2.569c6.109-2.54,14.717-1.555,9.906,7.319a2.209,2.209,0,0,1-.165.324,4.3,4.3,0,0,1-1.564,1.368l-15.372,9.02C1238.487,1496.279,1231.044,1493.182,1230.99,1490.9Z" transform="translate(-1230.99 -1369.456)" fill="url(#linear-gradient-24)"/>
            <path id="Path_888" data-name="Path 888" d="M1231.057,1502.036c.132,2.28,7.477,5.311,9.8,3.986l15.372-9.019a14.23,14.23,0,0,0,2.172-1.578c-.142.306-.266.6-.443.932a2.2,2.2,0,0,1-.165.324,4.3,4.3,0,0,1-1.564,1.368l-15.372,9.02c-2.193,1.253-8.863-1.38-9.742-3.6a2.233,2.233,0,0,1-.068-.447A7.617,7.617,0,0,1,1231.057,1502.036Z" transform="translate(-1231.017 -1381.587)" fill="#1e1c6b"/>
            <path id="Path_889" data-name="Path 889" d="M1237.716,1481.721c1.814,0,8.19,1.623,8.19,1.623a3.588,3.588,0,0,0,.568,1.651,2.66,2.66,0,0,1,.179.217c1.258.874,2.54,2.256-.445,4.133a4.141,4.141,0,0,1-5.377-.384A4.9,4.9,0,0,0,1239.1,1487a4.313,4.313,0,0,0-1.666-.7.672.672,0,0,0-.013-.151S1236.956,1481.721,1237.716,1481.721Z" transform="translate(-1234.856 -1373.163)" fill="#fff"/>
            <path id="Path_890" data-name="Path 890" d="M1236.173,1199.97c6.954.121,24.329.429,31.277.558-2.589,20.9-7.793,39.874-11.272,60.112-3.727,19.671-7.932,33.489-11.606,49.858-1.344,3.047-7.488,1.9-8.737-1.037-.973-15.077-2.09-33.439,2.379-50.831C1237.464,1239.88,1235.734,1218.894,1236.173,1199.97Z" transform="translate(-1233.427 -1199.97)" fill="url(#linear-gradient-25)"/>
          </g>
          <g id="Group_177" data-name="Group 177" transform="translate(2.355 109.846)">
            <path id="Path_891" data-name="Path 891" d="M1321.948,1543.848c0-11.1,7.038-11.427,7.038-11.427s3.809,0,10-2.565c6.1-2.539,14.714-1.561,9.9,7.316a1.91,1.91,0,0,1-.166.326,4.205,4.205,0,0,1-1.559,1.368l-15.375,9.021C1329.449,1549.227,1322,1546.131,1321.948,1543.848Z" transform="translate(-1289.257 -1406.222)" fill="url(#linear-gradient-26)"/>
            <path id="Path_892" data-name="Path 892" d="M1322.018,1554.982c.133,2.282,7.478,5.317,9.8,3.987l15.375-9.011a14.63,14.63,0,0,0,2.17-1.583c-.144.305-.267.6-.445.929a1.906,1.906,0,0,1-.166.326,4.2,4.2,0,0,1-1.559,1.368l-15.375,9.021c-2.192,1.254-8.863-1.38-9.742-3.6a2.257,2.257,0,0,1-.069-.449A7.387,7.387,0,0,1,1322.018,1554.982Z" transform="translate(-1289.283 -1418.354)" fill="#1e1c6b"/>
            <path id="Path_893" data-name="Path 893" d="M1328.677,1534.668c1.81,0,8.192,1.621,8.192,1.621a3.591,3.591,0,0,0,.567,1.655c.063.07.115.14.178.217,1.259.875,2.539,2.257-.447,4.131a4.144,4.144,0,0,1-5.376-.381,4.923,4.923,0,0,0-1.735-1.969,4.581,4.581,0,0,0-1.658-.7,1.046,1.046,0,0,0-.02-.151S1327.917,1534.668,1328.677,1534.668Z" transform="translate(-1293.124 -1409.929)" fill="#fff"/>
            <path id="Path_894" data-name="Path 894" d="M1259.554,1256.386c-1.9-8.985-23.826-10.1-22.384-45.421,6.878-1.012,41.574,15.262,48.451,14.25.86,21.04-1.173,40.614-1.3,61.146-.463,20.013-2.359,34.333-3.311,51.086-.824,3.226-7.076,3.089-8.786.4-3.42-14.714-7.524-32.651-5.955-50.538C1264.214,1277.4,1261.779,1266.9,1259.554,1256.386Z" transform="translate(-1237.101 -1210.92)" fill="url(#linear-gradient-27)"/>
          </g>
          <path id="Path_895" data-name="Path 895" d="M1251.01,1033.031c-24.482,16.356-20.992,55.228-1.082,39.524C1249.928,1072.555,1234,1056.808,1251.01,1033.031Z" transform="translate(-1232.723 -991.725)" fill="url(#linear-gradient-28)"/>
          <g id="Group_178" data-name="Group 178" transform="translate(2.064 5.723)">
            <path id="Path_896" data-name="Path 896" d="M1251.447,1115.991c14.9,8.362,30.489,8.378,35.8-1.9-1.987-19.138-3.849-34.712-.013-53.052-1.134-10.133-1.931-11.653-.63-17.562-.461-1.982-6.552-6.21-11-10.265-4.8-4.379-8.037-8.542-10.505-9.048-20.373-4.159-30.272,32.145-28.567,70.848C1238.109,1105.3,1244.114,1111.873,1251.447,1115.991Z" transform="translate(-1236.348 -991.798)" fill="url(#linear-gradient-29)"/>
            <path id="Path_897" data-name="Path 897" d="M1280.623,975.358c4.42-3.191,3.766-5.282,3.1-9.629a21.588,21.588,0,0,1-1.332-7.5c0-9.677,6.164-18.041,13.718-17.521,15.227,1.044,12.516,9.056,12.516,18.735,0,8.968-4.067,15.138-10.869,16.178,0,1.475.39,2.316,2.241,4.168-4.969,2.979-12.232,1.579-15.1.282C1281.846,978.685,1278.55,977.5,1280.623,975.358Z" transform="translate(-1263.165 -940.681)" fill="#facfa7"/>
          </g>
          <path id="Path_898" data-name="Path 898" d="M1287.508,929.122c1.962-1.01,3.73-.487,4.826-1.189,2.6-1.591,5.06-2.608,6.438-1.851a14.727,14.727,0,0,1,1.938,1.542c1.353,1.35,4.126-1.53,4.794,1.965a13.282,13.282,0,0,1,.23,2.717c6.5.835,3.3,6.755-1.922,18.16-.009-1.851-3.94-6.13-3.94,2.1,0,.884.662,1.058.082,2.23s-4.321,4.121-6.784,6.584c-3.441,3.44-5.461.356-11.145.974a9.049,9.049,0,0,0-1.5-5.183c-.542-.962-3.667-4.025-3.667-9.369C1281.271,948.342,1273.426,936.378,1287.508,929.122Z" transform="translate(-1259.185 -925.827)" fill="#20196f"/>
          <path id="Path_899" data-name="Path 899" d="M1328.483,1080.094c1.683,8.963,5.569,27.628,16.947,31.894,11.641-1.824,15.341-24.406,15.767-34.635l-9.553.65a101.077,101.077,0,0,1-4.314,14.814c-1.1-6.436-2.351-15.978-4.264-23.559C1340.25,1061.7,1326.017,1066.979,1328.483,1080.094Z" transform="translate(-1290.744 -1011.856)" fill="url(#linear-gradient-30)"/>
        </g>
      </g>
    </g>
  </g>
</svg>
