<?xml version="1.0" encoding="utf-8"?>
<!-- Generator: Adobe Illustrator 18.0.0, SVG Export Plug-In . SVG Version: 6.00 Build 0)  -->
<!DOCTYPE svg PUBLIC "-//W3C//DTD SVG 1.1//EN" "http://www.w3.org/Graphics/SVG/1.1/DTD/svg11.dtd">
<svg version="1.1" id="Layer_2" xmlns="http://www.w3.org/2000/svg" xmlns:xlink="http://www.w3.org/1999/xlink" x="0px" y="0px"
	 viewBox="0 0 165 30" enable-background="new 0 0 165 30" xml:space="preserve">
<g>
	<g>
		<path fill-rule="evenodd" clip-rule="evenodd" fill="#0094D9" d="M2.6,23.1c-0.5-0.8-0.7-1.8-0.6-2.9c-0.5-1.4-0.7-2.9-0.9-4.3
			l0-0.3C0,18.4,0,20.8,1.3,22.2C1.7,22.6,2.1,22.9,2.6,23.1L2.6,23.1z M18.5,2.6c2-0.6,3.8-0.7,5.2-0.1c-0.1-0.2-0.3-0.4-0.4-0.5
			c-1.5-1.6-4.3-1.6-7.5-0.4L18.5,2.6L18.5,2.6z"/>
		<g>
			<path fill="#58595B" d="M21.3,19.6c-0.4,0.8-1,1.5-1.5,2.1c-1,1.2-2.3,2.3-3.5,3.3c-0.6,0.5-1.2,0.9-1.8,1.3
				c-0.2,0.2-1,0.7-1.3,0.7c-0.3-0.1-1-0.6-1.3-0.7c-0.4-0.3-0.9-0.6-1.3-1c-0.8,0.3-1.7,0.7-2.5,0.9c0.2,0.2,0.4,0.4,0.7,0.5
				c0.7,0.5,1.4,1,1.9,1.4c2.2,1.6,3,1.6,5.2,0c0.5-0.4,1.2-0.9,1.9-1.4c1.3-1,2.7-2.3,3.8-3.5c0.9-1,1.5-1.9,1.9-2.7
				c0.4-1.1,0.8-2.6,1.1-4.7c0.1-0.9,0.2-1.9,0.3-2.9C24,14.3,23,15.6,22,16.8C21.8,17.7,21.6,18.7,21.3,19.6z"/>
			<path fill="#58595B" d="M24.6,11.4c-0.1,0.2-0.2,0.4-0.3,0.6C24.4,11.9,24.5,11.7,24.6,11.4z"/>
			<path fill="#58595B" d="M6.6,21.7C6,21,5.5,20.3,5.1,19.6c-0.5-1.3-0.7-2.7-0.9-4.1C3.8,13,3.6,10.3,3.5,7.7c0,0,0-0.1,0-0.1
				C4.9,7,6.4,6.5,7.8,5.9c1.5-0.6,3.1-1.2,4.6-1.8C12.6,4.1,12.8,4,13,4c0.1,0,0.1,0,0.2,0c0.1,0,0.1,0,0.2,0
				c0.2,0.1,0.4,0.1,0.6,0.2c1.5,0.6,3.1,1.2,4.6,1.8C20,6.5,21.4,7,22.9,7.6c0,0,0,0.1,0,0.1c0,0.9-0.1,1.8-0.2,2.8
				c1-1.6,1.7-3.2,2-4.6c-0.1-0.1-0.3-0.1-0.6-0.2c-1-0.4-2.9-1.1-4.8-1.8c-1.9-0.7-3.6-1.4-4.6-1.8c-0.2-0.1-0.5-0.2-0.6-0.2
				c-0.3-0.1-0.6-0.1-0.9-0.1c-0.3,0-0.6,0-0.9,0.1c-0.2,0.1-0.4,0.2-0.7,0.3c-1,0.4-2.8,1.1-4.6,1.8C5.2,4.5,3.2,5.2,2.2,5.6
				C1.2,6,1.1,6,1.2,7.8c0.1,1.8,0.3,5.4,0.7,8C2.2,18,2.6,19.4,3,20.5c0.4,0.8,1,1.7,1.9,2.7c0.1,0.1,0.3,0.3,0.4,0.4
				c0.8-0.1,1.7-0.4,2.5-0.7C7.4,22.5,7,22.1,6.6,21.7z"/>
			<path fill="#58595B" d="M24,12.6c-0.1,0.2-0.3,0.4-0.4,0.6C23.7,13,23.9,12.8,24,12.6z"/>
			<path fill="#58595B" d="M24.9,11c0,0,0-0.1,0.1-0.1h0c0,0,0,0,0,0C24.9,10.9,24.9,10.9,24.9,11z"/>
			<path fill="#58595B" d="M22.2,15.1c0.1-0.1,0.1-0.2,0.2-0.2C22.3,15,22.3,15,22.2,15.1C22.2,15.1,22.2,15.1,22.2,15.1z"/>
			<path fill="#58595B" d="M23.2,13.7c-0.1,0.2-0.3,0.4-0.5,0.6C22.9,14.2,23.1,13.9,23.2,13.7z"/>
			<path fill="#58595B" d="M8.8,25.1c-0.1,0-0.2,0.1-0.4,0.1C8.5,25.2,8.6,25.1,8.8,25.1z"/>
			<path fill="#58595B" d="M7.3,25.5C7.3,25.5,7.4,25.5,7.3,25.5C7.4,25.5,7.3,25.5,7.3,25.5C7.3,25.5,7.3,25.5,7.3,25.5z"/>
			<path fill="#58595B" d="M9.9,24.7C9.9,24.7,9.9,24.7,9.9,24.7c-0.1,0-0.2,0.1-0.2,0.1C9.7,24.8,9.8,24.7,9.9,24.7z"/>
			<path fill="#58595B" d="M24.3,12.1c-0.1,0.2-0.2,0.3-0.3,0.5C24.1,12.4,24.2,12.2,24.3,12.1z"/>
			<path fill="#58595B" d="M23.6,13.2c-0.1,0.2-0.2,0.3-0.3,0.5C23.4,13.6,23.5,13.4,23.6,13.2z"/>
			<path fill="#58595B" d="M8.4,25.2c-0.3,0.1-0.7,0.2-1,0.3C7.7,25.4,8.1,25.3,8.4,25.2z"/>
			<path fill="#58595B" d="M22.8,14.4c-0.1,0.2-0.3,0.3-0.4,0.5C22.5,14.7,22.7,14.5,22.8,14.4z"/>
			<path fill="#58595B" d="M9.6,24.8c-0.3,0.1-0.6,0.2-0.8,0.3C9.1,25,9.3,24.9,9.6,24.8z"/>
			<path fill="#58595B" d="M24.9,11c-0.1,0.2-0.2,0.3-0.3,0.5C24.7,11.3,24.8,11.1,24.9,11z"/>
			<path fill="#58595B" d="M25,10c-0.5,1-1,2.1-1.7,3c-0.3,0.5-0.7,1-1.1,1.5c0,0.2,0,0.4-0.1,0.5c0.1-0.1,0.1-0.1,0.2-0.2
				c0.1-0.2,0.3-0.3,0.4-0.5c0.2-0.2,0.3-0.4,0.5-0.6c0.1-0.2,0.2-0.3,0.3-0.5c0.1-0.2,0.3-0.4,0.4-0.6c0.1-0.2,0.2-0.3,0.3-0.5
				c0.1-0.2,0.2-0.4,0.3-0.6c0.1-0.2,0.2-0.3,0.3-0.5c0-0.1,0-0.1,0.1-0.2C25,10.5,25,10.3,25,10z"/>
			<path fill="#58595B" d="M9.5,24.5c-0.5,0.2-1,0.4-1.6,0.5c-0.3,0.1-0.6,0.2-1,0.2c0.1,0.1,0.2,0.2,0.3,0.2c0,0,0.1,0,0.1,0
				c0.3-0.1,0.7-0.2,1-0.3c0.1,0,0.2-0.1,0.4-0.1c0.3-0.1,0.6-0.2,0.8-0.3c0.1,0,0.2-0.1,0.2-0.1C9.8,24.6,9.7,24.6,9.5,24.5
				C9.6,24.5,9.6,24.5,9.5,24.5z"/>
			<path fill="#58595B" d="M25.1,9.8C25.1,9.9,25,10,25,10c0,0.3,0,0.5-0.1,0.8c1.6-3.4,1.9-6.4,0.3-8.2c-0.2-0.2-0.3-0.3-0.5-0.5
				c0.3,1.1,0.3,2.3-0.1,3.7c-0.4,1.4-1,3-2,4.6c-1.4,2.3-3.4,4.7-5.8,6.9c-0.1,0.1-0.2,0.1-0.2,0.2c-0.3-0.2-0.7-0.2-1.1-0.2
				c-1.5,0-2.7,1.2-2.7,2.7c0,0.1,0,0.3,0,0.4c-1.7,1.1-3.4,2-5,2.6c-0.9,0.3-1.7,0.6-2.5,0.7C3.1,24,1.2,23.8,0,22.8
				c0.2,0.6,0.4,1.1,0.8,1.5c1.3,1.5,3.7,1.8,6.5,1.2c-0.1-0.1-0.2-0.2-0.3-0.2c0,0,0,0-0.1,0c-1.4,0.3-3.1,0.4-4.4-0.1l1.4,0
				c0.4,0,0.8,0.1,1.2,0c0.5,0,1-0.1,1.5-0.2c0.1,0,0.1,0,0.1,0c0.4-0.1,0.8-0.2,1.1-0.3c0.4-0.1,0.8-0.3,1.3-0.4
				c0.1,0,0.1-0.1,0.2-0.1c1.5-0.6,3-1.4,4.5-2.3c0.1,0.1,0.2,0.1,0.2,0.2c-1.4,0.9-2.9,1.7-4.4,2.3c0.1,0.1,0.2,0.1,0.2,0.2
				c1.4-0.6,3-1.4,4.5-2.4c0.4,0.2,0.8,0.3,1.2,0.3c1.5,0,2.7-1.2,2.7-2.7c0-0.2,0-0.4-0.1-0.5l0.1-0.1c1.5-1.4,2.9-2.8,4-4.3
				c0-0.2,0-0.4,0.1-0.5c-0.2,0.3-0.5,0.6-0.8,1c-1.1,1.3-2.5,2.7-3.7,3.8c0,0.1,0.1,0.2,0.1,0.3c0,0.1,0,0.2,0,0.3
				c0,0.5-0.1,0.9-0.4,1.2c-0.3,0.5-0.8,0.9-1.3,1c-0.2,0.1-0.4,0.1-0.7,0.1c-0.1,0-0.1,0-0.2,0v-0.3c0.1,0,0.1,0,0.2,0
				c1.2,0,2.1-0.9,2.1-2.1c0,0,0-0.1,0-0.1c0-0.1,0-0.2,0-0.3c0-0.1,0-0.2-0.1-0.3l0.2-0.2l0,0c0,0,0,0,0,0c1.3-1.1,2.7-2.6,3.8-4
				c0.3-0.4,0.6-0.7,0.8-1.1c0.4-0.5,0.7-1,1-1.5c0.6-0.9,1.1-1.9,1.5-2.8c0.1-0.2,0.2-0.4,0.2-0.6c0.6-1.5,1-3.4,0.5-5L25.2,3
				c0,0,0,0,0,0C26.7,4.9,25.9,7.8,25.1,9.8z"/>
		</g>
	</g>
	<path fill="#0094D9" d="M35.6,22.9h2.8v-5.8h2.5c3.4,0,6-1.6,6-5.1c0-3.7-2.6-4.9-6-4.9h-5.3V22.9L35.6,22.9z M38.4,14.9V9.4h2.3
		c2.3,0,3.5,0.7,3.5,2.6c0,1.9-1.1,2.9-3.5,2.9H38.4L38.4,14.9z M51.4,16.4l0.6-1.9c0.5-1.7,1-3.4,1.4-5.2h0.1
		c0.5,1.7,0.9,3.5,1.4,5.2l0.6,1.9H51.4L51.4,16.4z M57.3,22.9h2.9L55.1,7.1h-3.3l-5.1,15.8h2.8l1.2-4.3H56L57.3,22.9L57.3,22.9z
		 M61.1,15c0,5.2,3.1,8.1,7.2,8.1c2,0,3.6-0.8,4.9-2.3l-1.6-1.7c-0.9,1-1.9,1.6-3.3,1.6c-2.7,0-4.3-2.2-4.3-5.8
		c0-3.5,1.8-5.7,4.4-5.7c1.2,0,2.1,0.5,2.9,1.3l1.6-1.7c-1-1.1-2.6-2-4.5-2C64.3,6.8,61.1,9.9,61.1,15L61.1,15z M75.8,22.9h2.8v-4.6
		l2.3-2.8l4.3,7.4h3.1l-5.7-9.6l4.8-6.1h-3.1l-5.6,7.2h-0.1V7.1h-2.8V22.9L75.8,22.9z M90.2,22.9h9.7v-2.4H93v-4.7h5.7v-2.4H93v-4
		h6.7V7.1h-9.5V22.9L90.2,22.9z M106.3,22.9h2.8V9.5h4.6V7.1h-11.9v2.4h4.6V22.9L106.3,22.9z"/>
	<path fill="#58595B" d="M116.5,22.9h8.9v-1.7h-6.9V7.1h-2V22.9L116.5,22.9z M130.3,16.5l0.7-2.4c0.6-1.8,1.1-3.5,1.6-5.3h0.1
		c0.5,1.8,1,3.6,1.6,5.3l0.7,2.4H130.3L130.3,16.5z M137,22.9h2.1l-5.4-15.8h-2.3l-5.4,15.8h2.1l1.5-4.8h5.8L137,22.9L137,22.9z
		 M141.4,22.9h5c3.5,0,6-1.5,6-4.6c0-2.2-1.4-3.4-3.7-3.8v-0.1c1.9-0.5,2.8-1.9,2.8-3.4c0-2.8-2.2-3.9-5.4-3.9h-4.7V22.9L141.4,22.9
		z M143.4,13.8V8.7h2.4c2.5,0,3.7,0.7,3.7,2.4c0,1.8-1.1,2.7-3.8,2.7H143.4L143.4,13.8z M143.4,21.3v-6h2.7c2.8,0,4.3,0.9,4.3,2.8
		c0,2.1-1.6,3.1-4.3,3.1H143.4L143.4,21.3z M154.1,20.9c1.4,1.4,3.3,2.3,5.5,2.3c3.3,0,5.4-2,5.4-4.5c0-2.3-1.4-3.4-3.3-4.2l-2.2-1
		c-1.3-0.5-2.6-1.1-2.6-2.6c0-1.4,1.2-2.3,2.9-2.3c1.5,0,2.6,0.6,3.6,1.5l1.1-1.3c-1.1-1.2-2.8-2-4.7-2c-2.9,0-5,1.8-5,4.2
		c0,2.3,1.7,3.4,3.2,4.1l2.3,1c1.5,0.7,2.6,1.2,2.6,2.8c0,1.5-1.2,2.6-3.3,2.6c-1.6,0-3.2-0.8-4.4-2L154.1,20.9L154.1,20.9z"/>
</g>
</svg>
